{
    "asset" : {
        "copyright" : "Reider_Munoz",
        "generator" : "Khronos glTF Blender I/O v1.7.33",
        "version" : "2.0"
    },
    "scene" : 0,
    "scenes" : [
        {
            "name" : "Scene",
            "nodes" : [
                12
            ]
        }
    ],
    "nodes" : [
        {
            "mesh" : 0,
            "name" : "Cylinder"
        },
        {
            "name" : "Bone.005",
            "rotation" : [
                -0.001818240387365222,
                -1.4162524709297568e-14,
                -4.3348691303179976e-10,
                0.9999984502792358
            ],
            "translation" : [
                5.957690937807847e-17,
                0.7253212332725525,
                -5.348870790072087e-28
            ]
        },
        {
            "children" : [
                1
            ],
            "name" : "Bone.004",
            "rotation" : [
                0.00033006086596287787,
                -1.3144465984410436e-13,
                7.869823542838716e-11,
                0.9999999403953552
            ],
            "scale" : [
                1,
                1.0000001192092896,
                0.9999999403953552
            ],
            "translation" : [
                1.298350051370684e-17,
                0.8862102627754211,
                -3.9290148912130007e-10
            ]
        },
        {
            "children" : [
                2
            ],
            "name" : "Bone.003",
            "rotation" : [
                0.0014881199458613992,
                1.456436289929905e-13,
                3.5478894822027485e-10,
                0.9999989867210388
            ],
            "scale" : [
                1,
                0.9999998807907104,
                1
            ],
            "translation" : [
                1.8567506157785078e-16,
                0.8492798805236816,
                -2.0518720056372786e-10
            ]
        },
        {
            "children" : [
                3
            ],
            "name" : "Bone.002",
            "rotation" : [
                0.0015576784498989582,
                -7.231727661149989e-09,
                3.8263203716581984e-10,
                0.9999988079071045
            ],
            "scale" : [
                1,
                0.9999998807907104,
                1
            ],
            "translation" : [
                -1.911130660387826e-16,
                0.846646785736084,
                4.42706427072892e-11
            ]
        },
        {
            "children" : [
                4
            ],
            "name" : "Bone.001",
            "rotation" : [
                -0.0014294689754024148,
                7.2316588273224625e-09,
                -3.5113606466907754e-10,
                0.9999989867210388
            ],
            "scale" : [
                1,
                0.9999998807907104,
                0.9999998807907104
            ],
            "translation" : [
                -1.3312237143822561e-16,
                0.8740398287773132,
                4.177874157740291e-10
            ]
        },
        {
            "children" : [
                5
            ],
            "name" : "Bone",
            "rotation" : [
                -0.7071975469589233,
                8.428294506757084e-08,
                -8.430455977759266e-08,
                0.7070160508155823
            ],
            "scale" : [
                1,
                1,
                0.9999998211860657
            ]
        },
        {
            "name" : "Bone.010",
            "rotation" : [
                0.024475188925862312,
                -1.3221044525835168e-07,
                -8.731029232933452e-09,
                0.9997004270553589
            ],
            "scale" : [
                1.0000001192092896,
                0.9999999403953552,
                1
            ],
            "translation" : [
                -2.2460824866676887e-10,
                1.0482614040374756,
                2.5585227270141786e-09
            ]
        },
        {
            "children" : [
                7
            ],
            "name" : "Bone.009",
            "rotation" : [
                0.005178480409085751,
                -2.3294440154586482e-08,
                -9.96189686297555e-10,
                0.9999865889549255
            ],
            "scale" : [
                1.0000001192092896,
                1,
                0.9999998807907104
            ],
            "translation" : [
                4.6039178025480965e-10,
                1.128039002418518,
                -1.906919067096169e-09
            ]
        },
        {
            "children" : [
                8
            ],
            "name" : "Bone.008",
            "rotation" : [
                -0.007465153466910124,
                6.893511539374231e-08,
                2.2057045079293403e-09,
                0.9999721646308899
            ],
            "scale" : [
                1,
                1.0000001192092896,
                0.9999999403953552
            ],
            "translation" : [
                -1.112081982057589e-09,
                0.9267494678497314,
                -5.763812205294983e-10
            ]
        },
        {
            "children" : [
                9
            ],
            "name" : "Bone.007",
            "rotation" : [
                0.005183902569115162,
                0.5105089545249939,
                -0.001106709591113031,
                0.859856128692627
            ],
            "scale" : [
                1.0000001192092896,
                0.9999998211860657,
                1
            ],
            "translation" : [
                6.434367622043524e-11,
                0.9836958050727844,
                -1.1799520249766715e-09
            ]
        },
        {
            "children" : [
                10
            ],
            "name" : "Bone.006",
            "rotation" : [
                0.011430669575929642,
                -0.7056477665901184,
                -0.7083776593208313,
                0.011474894359707832
            ],
            "scale" : [
                0.9999998807907104,
                0.9999996423721313,
                1.0000001192092896
            ]
        },
        {
            "children" : [
                0,
                6,
                11
            ],
            "name" : "Armature"
        }
    ],
    "materials" : [
        {
            "doubleSided" : true,
            "name" : "Material.005",
            "pbrMetallicRoughness" : {
                "baseColorTexture" : {
                    "index" : 0
                },
                "metallicFactor" : 0,
                "roughnessFactor" : 0.5
            }
        }
    ],
    "meshes" : [
        {
            "name" : "Cylinder.003",
            "primitives" : [
                {
                    "attributes" : {
                        "POSITION" : 0,
                        "NORMAL" : 1,
                        "TEXCOORD_0" : 2,
                        "TEXCOORD_1" : 3
                    },
                    "indices" : 4,
                    "material" : 0
                }
            ]
        }
    ],
    "textures" : [
        {
            "sampler" : 0,
            "source" : 0
        }
    ],
    "images" : [
        {
            "bufferView" : 5,
            "mimeType" : "image/png",
            "name" : "Material"
        }
    ],
    "accessors" : [
        {
            "bufferView" : 0,
            "componentType" : 5126,
            "count" : 542,
            "max" : [
                0.5,
                0.5180224776268005,
                5.025012016296387
            ],
            "min" : [
                -0.5441871881484985,
                -0.5000013709068298,
                -5.000000476837158
            ],
            "type" : "VEC3"
        },
        {
            "bufferView" : 1,
            "componentType" : 5126,
            "count" : 542,
            "type" : "VEC3"
        },
        {
            "bufferView" : 2,
            "componentType" : 5126,
            "count" : 542,
            "type" : "VEC2"
        },
        {
            "bufferView" : 3,
            "componentType" : 5126,
            "count" : 542,
            "type" : "VEC2"
        },
        {
            "bufferView" : 4,
            "componentType" : 5123,
            "count" : 1128,
            "type" : "SCALAR"
        }
    ],
    "bufferViews" : [
        {
            "buffer" : 0,
            "byteLength" : 6504,
            "byteOffset" : 0
        },
        {
            "buffer" : 0,
            "byteLength" : 6504,
            "byteOffset" : 6504
        },
        {
            "buffer" : 0,
            "byteLength" : 4336,
            "byteOffset" : 13008
        },
        {
            "buffer" : 0,
            "byteLength" : 4336,
            "byteOffset" : 17344
        },
        {
            "buffer" : 0,
            "byteLength" : 2256,
            "byteOffset" : 21680
        },
        {
            "buffer" : 0,
            "byteLength" : 23722,
            "byteOffset" : 23936
        }
    ],
    "samplers" : [
        {
            "magFilter" : 9729,
            "minFilter" : 9987
        }
    ],
    "buffers" : [
        {
            "byteLength" : 47660,
            "uri" : "data:application/octet-stream;base64,"
        }
    ]
}
