{
    "asset" : {
        "copyright" : "Reidr",
        "generator" : "Khronos glTF Blender I/O v3.2.40",
        "version" : "2.0"
    },
    "scene" : 0,
    "scenes" : [
        {
            "name" : "Scene",
            "nodes" : [
                12,
                13
            ]
        }
    ],
    "nodes" : [
        {
            "name" : "Bone.005",
            "rotation" : [
                -0.0018181739142164588,
                -3.5526116113303568e-15,
                -4.3348638567586306e-10,
                0.9999984502792358
            ],
            "translation" : [
                2.8243974813015743e-16,
                0.7253212332725525,
                -9.313225746154785e-10
            ]
        },
        {
            "children" : [
                0
            ],
            "name" : "Bone.004",
            "rotation" : [
                0.0003300835669506341,
                -1.7763678508285648e-14,
                7.869800644488834e-11,
                0.9999999403953552
            ],
            "scale" : [
                1,
                1.0000001192092896,
                1
            ],
            "translation" : [
                -6.938893903907228e-18,
                0.8862093091011047,
                9.89530235528946e-10
            ]
        },
        {
            "children" : [
                1
            ],
            "name" : "Bone.003",
            "rotation" : [
                0.001488090492784977,
                1.0658155435961606e-14,
                3.5478844861991377e-10,
                0.9999989867210388
            ],
            "translation" : [
                7.767398005440341e-18,
                0.8492801189422607,
                -3.2578828523810444e-11
            ]
        },
        {
            "children" : [
                2
            ],
            "name" : "Bone.002",
            "rotation" : [
                0.0015576271107420325,
                3.552690808910925e-15,
                3.713672147576119e-10,
                0.9999988079071045
            ],
            "scale" : [
                1,
                0.9999999403953552,
                1
            ],
            "translation" : [
                0,
                0.8466465473175049,
                0
            ]
        },
        {
            "children" : [
                3
            ],
            "name" : "Bone.001",
            "rotation" : [
                -0.001429411000572145,
                -1.0658152894862764e-14,
                -3.4079811195297793e-10,
                0.9999989867210388
            ],
            "scale" : [
                1,
                0.9999999403953552,
                0.9999999403953552
            ],
            "translation" : [
                0,
                0.874039888381958,
                0
            ]
        },
        {
            "children" : [
                4
            ],
            "name" : "Bone",
            "rotation" : [
                -0.7071974873542786,
                8.428290243500669e-08,
                -8.430451003960115e-08,
                0.707016110420227
            ],
            "scale" : [
                1,
                1,
                0.9999999403953552
            ]
        },
        {
            "name" : "Bone.010",
            "rotation" : [
                -0.001811585621908307,
                -4.3711310127036995e-08,
                7.846443494941013e-10,
                0.9999984502792358
            ],
            "translation" : [
                4.887269461978578e-16,
                1.0482611656188965,
                2.3282911709721077e-10
            ]
        },
        {
            "children" : [
                6
            ],
            "name" : "Bone.009",
            "rotation" : [
                0.005178514868021011,
                -7.105089391455047e-15,
                -2.0165882297362714e-09,
                0.9999865889549255
            ],
            "translation" : [
                3.9805995718860624e-16,
                1.1280385255813599,
                2.3283064365386963e-10
            ]
        },
        {
            "children" : [
                7
            ],
            "name" : "Bone.008",
            "rotation" : [
                -0.007465152069926262,
                -3.552899687235718e-14,
                2.907037055521755e-09,
                0.9999721646308899
            ],
            "scale" : [
                1,
                0.9999998807907104,
                0.9999999403953552
            ],
            "translation" : [
                3.411994295328131e-16,
                0.9267485737800598,
                9.313225746154785e-10
            ]
        },
        {
            "children" : [
                8
            ],
            "name" : "Bone.007",
            "rotation" : [
                0.006028724834322929,
                -1.1920711529000982e-07,
                -1.628992052360445e-09,
                0.9999818205833435
            ],
            "scale" : [
                1,
                0.9999999403953552,
                0.9999998807907104
            ],
            "translation" : [
                0,
                0.9836953282356262,
                -2.3283064365386963e-10
            ]
        },
        {
            "children" : [
                9
            ],
            "name" : "Bone.006",
            "rotation" : [
                5.348803355786913e-08,
                0.7057403922080994,
                0.7084705233573914,
                5.328191932107984e-08
            ]
        },
        {
            "mesh" : 0,
            "name" : "Cylinder",
            "skin" : 0
        },
        {
            "children" : [
                11,
                5,
                10
            ],
            "name" : "Armature"
        },
        {
            "name" : "BezierCurve",
            "translation" : [
                1.7893339395523071,
                -0.6210426688194275,
                -0.42080503702163696
            ]
        }
    ],
    "materials" : [
        {
            "doubleSided" : true,
            "name" : "Material.001",
            "pbrMetallicRoughness" : {
                "baseColorTexture" : {
                    "index" : 0
                },
                "metallicFactor" : 0,
                "roughnessFactor" : 0.5
            }
        }
    ],
    "meshes" : [
        {
            "name" : "Cylinder",
            "primitives" : [
                {
                    "attributes" : {
                        "POSITION" : 0,
                        "NORMAL" : 1,
                        "TEXCOORD_0" : 2,
                        "JOINTS_0" : 3,
                        "WEIGHTS_0" : 4
                    },
                    "indices" : 5,
                    "material" : 0
                }
            ]
        }
    ],
    "textures" : [
        {
            "sampler" : 0,
            "source" : 0
        }
    ],
    "images" : [
        {
            "bufferView" : 6,
            "mimeType" : "image/png",
            "name" : "Material"
        }
    ],
    "skins" : [
        {
            "inverseBindMatrices" : 6,
            "joints" : [
                5,
                4,
                3,
                2,
                1,
                0,
                10,
                9,
                8,
                7,
                6
            ],
            "name" : "Armature"
        }
    ],
    "accessors" : [
        {
            "bufferView" : 0,
            "componentType" : 5126,
            "count" : 192,
            "max" : [
                0.5,
                0.5000002384185791,
                5
            ],
            "min" : [
                -0.5,
                -0.5000002384185791,
                -5
            ],
            "type" : "VEC3"
        },
        {
            "bufferView" : 1,
            "componentType" : 5126,
            "count" : 192,
            "type" : "VEC3"
        },
        {
            "bufferView" : 2,
            "componentType" : 5126,
            "count" : 192,
            "type" : "VEC2"
        },
        {
            "bufferView" : 3,
            "componentType" : 5121,
            "count" : 192,
            "type" : "VEC4"
        },
        {
            "bufferView" : 4,
            "componentType" : 5126,
            "count" : 192,
            "type" : "VEC4"
        },
        {
            "bufferView" : 5,
            "componentType" : 5123,
            "count" : 372,
            "type" : "SCALAR"
        },
        {
            "bufferView" : 7,
            "componentType" : 5126,
            "count" : 11,
            "type" : "MAT4"
        }
    ],
    "bufferViews" : [
        {
            "buffer" : 0,
            "byteLength" : 2304,
            "byteOffset" : 0
        },
        {
            "buffer" : 0,
            "byteLength" : 2304,
            "byteOffset" : 2304
        },
        {
            "buffer" : 0,
            "byteLength" : 1536,
            "byteOffset" : 4608
        },
        {
            "buffer" : 0,
            "byteLength" : 768,
            "byteOffset" : 6144
        },
        {
            "buffer" : 0,
            "byteLength" : 3072,
            "byteOffset" : 6912
        },
        {
            "buffer" : 0,
            "byteLength" : 744,
            "byteOffset" : 9984
        },
        {
            "buffer" : 0,
            "byteLength" : 23722,
            "byteOffset" : 10728
        },
        {
            "buffer" : 0,
            "byteLength" : 704,
            "byteOffset" : 34452
        }
    ],
    "samplers" : [
        {
            "magFilter" : 9729,
            "minFilter" : 9987
        }
    ],
    "buffers" : [
        {
            "byteLength" : 35156,
            "uri" : "data:application/octet-stream;base64,"
        }
    ]
}
