{
    "asset" : {
        "generator" : "Khronos glTF Blender I/O v1.7.33",
        "version" : "2.0"
    },
    "scene" : 0,
    "scenes" : [
        {
            "name" : "Scene",
            "nodes" : [
                0
            ]
        }
    ],
    "nodes" : [
        {
            "mesh" : 0,
            "name" : "carga2puntos",
            "scale" : [
                0.5861619710922241,
                4.548452377319336,
                1.3667839765548706
            ],
            "translation" : [
                0,
                2.137977123260498,
                -3.499999761581421
            ]
        }
    ],
    "materials" : [
        {
            "doubleSided" : true,
            "name" : "Material.Steel.Plate",
            "pbrMetallicRoughness" : {
                "baseColorFactor" : [
                    0.032435353845357895,
                    0.032435353845357895,
                    0.032435353845357895,
                    1
                ],
                "metallicFactor" : 0.800000011920929,
                "roughnessFactor" : 0.25
            }
        },
        {
            "doubleSided" : true,
            "name" : "Material.150",
            "pbrMetallicRoughness" : {
                "baseColorFactor" : [
                    0.041012998670339584,
                    0.1469999998807907,
                    0.07259710878133774,
                    1
                ],
                "metallicFactor" : 0,
                "roughnessFactor" : 0.5
            }
        },
        {
            "doubleSided" : true,
            "name" : "MaterialSoporte",
            "pbrMetallicRoughness" : {
                "baseColorFactor" : [
                    0.32354313135147095,
                    0.32354313135147095,
                    0.32354313135147095,
                    1
                ],
                "metallicFactor" : 0.75,
                "roughnessFactor" : 0.4000000059604645
            }
        }
    ],
    "meshes" : [
        {
            "name" : "Plane.001",
            "primitives" : [
                {
                    "attributes" : {
                        "POSITION" : 0,
                        "NORMAL" : 1,
                        "TEXCOORD_0" : 2
                    },
                    "indices" : 3,
                    "material" : 0
                },
                {
                    "attributes" : {
                        "POSITION" : 4,
                        "NORMAL" : 5,
                        "TEXCOORD_0" : 6
                    },
                    "indices" : 7,
                    "material" : 1
                },
                {
                    "attributes" : {
                        "POSITION" : 8,
                        "NORMAL" : 9,
                        "TEXCOORD_0" : 10
                    },
                    "indices" : 11,
                    "material" : 2
                }
            ]
        }
    ],
    "accessors" : [
        {
            "bufferView" : 0,
            "componentType" : 5126,
            "count" : 128,
            "max" : [
                0.5,
                0.04328339174389839,
                0.5
            ],
            "min" : [
                -0.5,
                -0.01560094952583313,
                -0.5
            ],
            "type" : "VEC3"
        },
        {
            "bufferView" : 1,
            "componentType" : 5126,
            "count" : 128,
            "type" : "VEC3"
        },
        {
            "bufferView" : 2,
            "componentType" : 5126,
            "count" : 128,
            "type" : "VEC2"
        },
        {
            "bufferView" : 3,
            "componentType" : 5123,
            "count" : 336,
            "type" : "SCALAR"
        },
        {
            "bufferView" : 4,
            "componentType" : 5126,
            "count" : 120,
            "max" : [
                0.5,
                0.04328339174389839,
                0.5
            ],
            "min" : [
                -0.5,
                -0.02574450522661209,
                -0.5
            ],
            "type" : "VEC3"
        },
        {
            "bufferView" : 5,
            "componentType" : 5126,
            "count" : 120,
            "type" : "VEC3"
        },
        {
            "bufferView" : 6,
            "componentType" : 5126,
            "count" : 120,
            "type" : "VEC2"
        },
        {
            "bufferView" : 7,
            "componentType" : 5123,
            "count" : 384,
            "type" : "SCALAR"
        },
        {
            "bufferView" : 8,
            "componentType" : 5126,
            "count" : 390,
            "max" : [
                0.28030073642730713,
                0.00022881431505084038,
                0.08706548064947128
            ],
            "min" : [
                -0.28030070662498474,
                -0.029260221868753433,
                -0.08706595748662949
            ],
            "type" : "VEC3"
        },
        {
            "bufferView" : 9,
            "componentType" : 5126,
            "count" : 390,
            "type" : "VEC3"
        },
        {
            "bufferView" : 10,
            "componentType" : 5126,
            "count" : 390,
            "type" : "VEC2"
        },
        {
            "bufferView" : 11,
            "componentType" : 5123,
            "count" : 1116,
            "type" : "SCALAR"
        }
    ],
    "bufferViews" : [
        {
            "buffer" : 0,
            "byteLength" : 1536,
            "byteOffset" : 0
        },
        {
            "buffer" : 0,
            "byteLength" : 1536,
            "byteOffset" : 1536
        },
        {
            "buffer" : 0,
            "byteLength" : 1024,
            "byteOffset" : 3072
        },
        {
            "buffer" : 0,
            "byteLength" : 672,
            "byteOffset" : 4096
        },
        {
            "buffer" : 0,
            "byteLength" : 1440,
            "byteOffset" : 4768
        },
        {
            "buffer" : 0,
            "byteLength" : 1440,
            "byteOffset" : 6208
        },
        {
            "buffer" : 0,
            "byteLength" : 960,
            "byteOffset" : 7648
        },
        {
            "buffer" : 0,
            "byteLength" : 768,
            "byteOffset" : 8608
        },
        {
            "buffer" : 0,
            "byteLength" : 4680,
            "byteOffset" : 9376
        },
        {
            "buffer" : 0,
            "byteLength" : 4680,
            "byteOffset" : 14056
        },
        {
            "buffer" : 0,
            "byteLength" : 3120,
            "byteOffset" : 18736
        },
        {
            "buffer" : 0,
            "byteLength" : 2232,
            "byteOffset" : 21856
        }
    ],
    "buffers" : [
        {
            "byteLength" : 24088,
            "uri" : "data:application/octet-stream;base64,"
        }
    ]
}
