{
    "asset" : {
        "generator" : "Khronos glTF Blender I/O v1.7.33",
        "version" : "2.0"
    },
    "scene" : 0,
    "scenes" : [
        {
            "name" : "Scene",
            "nodes" : [
                0,
                1,
                2,
                3,
                4
            ]
        }
    ],
    "nodes" : [
        {
            "mesh" : 0,
            "name" : "carga2puntos",
            "scale" : [
                0.5861619710922241,
                4.548452377319336,
                1.3667839765548706
            ],
            "translation" : [
                0,
                2.137977123260498,
                -3.499999761581421
            ]
        },
        {
            "mesh" : 1,
            "name" : "carga2puntos.001",
            "scale" : [
                0.5861619710922241,
                4.548452377319336,
                1.3667839765548706
            ],
            "translation" : [
                0,
                2.137977123260498,
                -3.499999761581421
            ]
        },
        {
            "mesh" : 2,
            "name" : "carga2puntos.003",
            "scale" : [
                0.5861619710922241,
                4.548452377319336,
                1.3667839765548706
            ],
            "translation" : [
                0.03593568131327629,
                2.1400201320648193,
                -3.5969536304473877
            ]
        },
        {
            "mesh" : 3,
            "name" : "carga2puntos.004",
            "scale" : [
                0.5861619710922241,
                4.548452377319336,
                1.3667839765548706
            ],
            "translation" : [
                0,
                2.137977123260498,
                -3.34606671333313
            ]
        },
        {
            "mesh" : 4,
            "name" : "carga2puntos.005",
            "scale" : [
                0.5861619710922241,
                4.548452377319336,
                1.3667839765548706
            ],
            "translation" : [
                0,
                2.137977123260498,
                -3.499999761581421
            ]
        }
    ],
    "materials" : [
        {
            "doubleSided" : true,
            "name" : "Material.Steel.Plate",
            "pbrMetallicRoughness" : {
                "baseColorFactor" : [
                    0.032435353845357895,
                    0.032435353845357895,
                    0.032435353845357895,
                    1
                ],
                "metallicFactor" : 0.800000011920929,
                "roughnessFactor" : 0.25
            }
        },
        {
            "doubleSided" : true,
            "name" : "Material.150",
            "pbrMetallicRoughness" : {
                "baseColorFactor" : [
                    0.041012998670339584,
                    0.1469999998807907,
                    0.07259710878133774,
                    1
                ],
                "metallicFactor" : 0,
                "roughnessFactor" : 0.5
            }
        },
        {
            "doubleSided" : true,
            "name" : "MaterialSoporte",
            "pbrMetallicRoughness" : {
                "baseColorFactor" : [
                    0.32354313135147095,
                    0.32354313135147095,
                    0.32354313135147095,
                    1
                ],
                "metallicFactor" : 0.75,
                "roughnessFactor" : 0.4000000059604645
            }
        },
        {
            "doubleSided" : true,
            "name" : "Material.Steel.Plate.002",
            "pbrMetallicRoughness" : {
                "baseColorFactor" : [
                    0.032435353845357895,
                    0.032435353845357895,
                    0.032435353845357895,
                    1
                ],
                "metallicFactor" : 0.800000011920929,
                "roughnessFactor" : 0.25
            }
        },
        {
            "doubleSided" : true,
            "name" : "Material.003",
            "pbrMetallicRoughness" : {
                "baseColorFactor" : [
                    0.041012998670339584,
                    0.1469999998807907,
                    0.07259710878133774,
                    1
                ],
                "metallicFactor" : 0,
                "roughnessFactor" : 0.5
            }
        },
        {
            "doubleSided" : true,
            "name" : "MaterialSoporte.002",
            "pbrMetallicRoughness" : {
                "baseColorFactor" : [
                    0.32354313135147095,
                    0.32354313135147095,
                    0.32354313135147095,
                    1
                ],
                "metallicFactor" : 0.75,
                "roughnessFactor" : 0.4000000059604645
            }
        },
        {
            "doubleSided" : true,
            "name" : "Material.Steel.Plate.003",
            "pbrMetallicRoughness" : {
                "baseColorFactor" : [
                    0.032435353845357895,
                    0.032435353845357895,
                    0.032435353845357895,
                    1
                ],
                "metallicFactor" : 0.800000011920929,
                "roughnessFactor" : 0.25
            }
        },
        {
            "doubleSided" : true,
            "name" : "Material.Steel.Plate.004",
            "pbrMetallicRoughness" : {
                "baseColorFactor" : [
                    0.032435353845357895,
                    0.032435353845357895,
                    0.032435353845357895,
                    1
                ],
                "metallicFactor" : 0.800000011920929,
                "roughnessFactor" : 0.25
            }
        }
    ],
    "meshes" : [
        {
            "name" : "Plane.001",
            "primitives" : [
                {
                    "attributes" : {
                        "POSITION" : 0,
                        "NORMAL" : 1,
                        "TEXCOORD_0" : 2,
                        "TEXCOORD_1" : 3
                    },
                    "indices" : 4,
                    "material" : 0
                },
                {
                    "attributes" : {
                        "POSITION" : 5,
                        "NORMAL" : 6,
                        "TEXCOORD_0" : 7,
                        "TEXCOORD_1" : 8
                    },
                    "indices" : 9,
                    "material" : 1
                },
                {
                    "attributes" : {
                        "POSITION" : 10,
                        "NORMAL" : 11,
                        "TEXCOORD_0" : 12,
                        "TEXCOORD_1" : 13
                    },
                    "indices" : 14,
                    "material" : 2
                }
            ]
        },
        {
            "name" : "Plane.002",
            "primitives" : [
                {
                    "attributes" : {
                        "POSITION" : 15,
                        "NORMAL" : 16,
                        "TEXCOORD_0" : 17,
                        "TEXCOORD_1" : 18
                    },
                    "indices" : 19,
                    "material" : 0
                }
            ]
        },
        {
            "name" : "Plane.005",
            "primitives" : [
                {
                    "attributes" : {
                        "POSITION" : 20,
                        "NORMAL" : 21,
                        "TEXCOORD_0" : 22,
                        "TEXCOORD_1" : 23
                    },
                    "indices" : 24,
                    "material" : 3
                },
                {
                    "attributes" : {
                        "POSITION" : 25,
                        "NORMAL" : 26,
                        "TEXCOORD_0" : 27,
                        "TEXCOORD_1" : 28
                    },
                    "indices" : 29,
                    "material" : 4
                },
                {
                    "attributes" : {
                        "POSITION" : 30,
                        "NORMAL" : 31,
                        "TEXCOORD_0" : 32,
                        "TEXCOORD_1" : 33
                    },
                    "indices" : 34,
                    "material" : 5
                }
            ]
        },
        {
            "name" : "Plane.006",
            "primitives" : [
                {
                    "attributes" : {
                        "POSITION" : 35,
                        "NORMAL" : 36,
                        "TEXCOORD_0" : 37,
                        "TEXCOORD_1" : 38
                    },
                    "indices" : 19,
                    "material" : 6
                }
            ]
        },
        {
            "name" : "Plane.007",
            "primitives" : [
                {
                    "attributes" : {
                        "POSITION" : 39,
                        "NORMAL" : 40,
                        "TEXCOORD_0" : 41,
                        "TEXCOORD_1" : 42
                    },
                    "indices" : 19,
                    "material" : 7
                }
            ]
        }
    ],
    "accessors" : [
        {
            "bufferView" : 0,
            "componentType" : 5126,
            "count" : 133,
            "max" : [
                0.5,
                0.043283332139253616,
                0.4999995231628418
            ],
            "min" : [
                -0.5,
                -0.015579881146550179,
                -0.5000004768371582
            ],
            "type" : "VEC3"
        },
        {
            "bufferView" : 1,
            "componentType" : 5126,
            "count" : 133,
            "type" : "VEC3"
        },
        {
            "bufferView" : 2,
            "componentType" : 5126,
            "count" : 133,
            "type" : "VEC2"
        },
        {
            "bufferView" : 3,
            "componentType" : 5126,
            "count" : 133,
            "type" : "VEC2"
        },
        {
            "bufferView" : 4,
            "componentType" : 5123,
            "count" : 351,
            "type" : "SCALAR"
        },
        {
            "bufferView" : 5,
            "componentType" : 5126,
            "count" : 104,
            "max" : [
                0.5,
                0.043283332139253616,
                0.4999995231628418
            ],
            "min" : [
                -0.5,
                -5.960464477539063e-08,
                -0.5000004768371582
            ],
            "type" : "VEC3"
        },
        {
            "bufferView" : 6,
            "componentType" : 5126,
            "count" : 104,
            "type" : "VEC3"
        },
        {
            "bufferView" : 7,
            "componentType" : 5126,
            "count" : 104,
            "type" : "VEC2"
        },
        {
            "bufferView" : 8,
            "componentType" : 5126,
            "count" : 104,
            "type" : "VEC2"
        },
        {
            "bufferView" : 9,
            "componentType" : 5123,
            "count" : 312,
            "type" : "SCALAR"
        },
        {
            "bufferView" : 10,
            "componentType" : 5126,
            "count" : 130,
            "max" : [
                0.127950981259346,
                0.000228754710406065,
                0.054872624576091766
            ],
            "min" : [
                -0.127950981259346,
                -0.010763995349407196,
                -0.054874055087566376
            ],
            "type" : "VEC3"
        },
        {
            "bufferView" : 11,
            "componentType" : 5126,
            "count" : 130,
            "type" : "VEC3"
        },
        {
            "bufferView" : 12,
            "componentType" : 5126,
            "count" : 130,
            "type" : "VEC2"
        },
        {
            "bufferView" : 13,
            "componentType" : 5126,
            "count" : 130,
            "type" : "VEC2"
        },
        {
            "bufferView" : 14,
            "componentType" : 5123,
            "count" : 372,
            "type" : "SCALAR"
        },
        {
            "bufferView" : 15,
            "componentType" : 5126,
            "count" : 30,
            "max" : [
                0.17060136795043945,
                -0.01557985134422779,
                0.004650510847568512
            ],
            "min" : [
                -0.17060184478759766,
                -0.015600979328155518,
                -0.11664388328790665
            ],
            "type" : "VEC3"
        },
        {
            "bufferView" : 16,
            "componentType" : 5126,
            "count" : 30,
            "type" : "VEC3"
        },
        {
            "bufferView" : 17,
            "componentType" : 5126,
            "count" : 30,
            "type" : "VEC2"
        },
        {
            "bufferView" : 18,
            "componentType" : 5126,
            "count" : 30,
            "type" : "VEC2"
        },
        {
            "bufferView" : 19,
            "componentType" : 5123,
            "count" : 54,
            "type" : "SCALAR"
        },
        {
            "bufferView" : 20,
            "componentType" : 5126,
            "count" : 30,
            "max" : [
                0.17060136795043945,
                -0.015492688864469528,
                0.11699006706476212
            ],
            "min" : [
                -0.17060184478759766,
                -0.015600979328155518,
                -0.11664388328790665
            ],
            "type" : "VEC3"
        },
        {
            "bufferView" : 21,
            "componentType" : 5126,
            "count" : 30,
            "type" : "VEC3"
        },
        {
            "bufferView" : 22,
            "componentType" : 5126,
            "count" : 30,
            "type" : "VEC2"
        },
        {
            "bufferView" : 23,
            "componentType" : 5126,
            "count" : 30,
            "type" : "VEC2"
        },
        {
            "bufferView" : 24,
            "componentType" : 5123,
            "count" : 51,
            "type" : "SCALAR"
        },
        {
            "bufferView" : 25,
            "componentType" : 5126,
            "count" : 19,
            "max" : [
                0.255901962518692,
                -0.015601036138832569,
                0.10563397407531738
            ],
            "min" : [
                -0.255901962518692,
                -0.02574453502893448,
                0.040693990886211395
            ],
            "type" : "VEC3"
        },
        {
            "bufferView" : 26,
            "componentType" : 5126,
            "count" : 19,
            "type" : "VEC3"
        },
        {
            "bufferView" : 27,
            "componentType" : 5126,
            "count" : 19,
            "type" : "VEC2"
        },
        {
            "bufferView" : 28,
            "componentType" : 5126,
            "count" : 19,
            "type" : "VEC2"
        },
        {
            "bufferView" : 29,
            "componentType" : 5123,
            "count" : 102,
            "type" : "SCALAR"
        },
        {
            "bufferView" : 30,
            "componentType" : 5126,
            "count" : 163,
            "max" : [
                0.28030070662498474,
                -0.020905759185552597,
                0.08706524223089218
            ],
            "min" : [
                -0.28030070662498474,
                -0.02926025167107582,
                0.059262730181217194
            ],
            "type" : "VEC3"
        },
        {
            "bufferView" : 31,
            "componentType" : 5126,
            "count" : 163,
            "type" : "VEC3"
        },
        {
            "bufferView" : 32,
            "componentType" : 5126,
            "count" : 163,
            "type" : "VEC2"
        },
        {
            "bufferView" : 33,
            "componentType" : 5126,
            "count" : 163,
            "type" : "VEC2"
        },
        {
            "bufferView" : 34,
            "componentType" : 5123,
            "count" : 564,
            "type" : "SCALAR"
        },
        {
            "bufferView" : 35,
            "componentType" : 5126,
            "count" : 30,
            "max" : [
                0.17060136795043945,
                -0.01557985134422779,
                0.004650510847568512
            ],
            "min" : [
                -0.17060184478759766,
                -0.015600979328155518,
                -0.11664388328790665
            ],
            "type" : "VEC3"
        },
        {
            "bufferView" : 36,
            "componentType" : 5126,
            "count" : 30,
            "type" : "VEC3"
        },
        {
            "bufferView" : 37,
            "componentType" : 5126,
            "count" : 30,
            "type" : "VEC2"
        },
        {
            "bufferView" : 38,
            "componentType" : 5126,
            "count" : 30,
            "type" : "VEC2"
        },
        {
            "bufferView" : 39,
            "componentType" : 5126,
            "count" : 30,
            "max" : [
                0.17060136795043945,
                -0.01557985134422779,
                0.004650510847568512
            ],
            "min" : [
                -0.17060184478759766,
                -0.015600979328155518,
                -0.11664388328790665
            ],
            "type" : "VEC3"
        },
        {
            "bufferView" : 40,
            "componentType" : 5126,
            "count" : 30,
            "type" : "VEC3"
        },
        {
            "bufferView" : 41,
            "componentType" : 5126,
            "count" : 30,
            "type" : "VEC2"
        },
        {
            "bufferView" : 42,
            "componentType" : 5126,
            "count" : 30,
            "type" : "VEC2"
        }
    ],
    "bufferViews" : [
        {
            "buffer" : 0,
            "byteLength" : 1596,
            "byteOffset" : 0
        },
        {
            "buffer" : 0,
            "byteLength" : 1596,
            "byteOffset" : 1596
        },
        {
            "buffer" : 0,
            "byteLength" : 1064,
            "byteOffset" : 3192
        },
        {
            "buffer" : 0,
            "byteLength" : 1064,
            "byteOffset" : 4256
        },
        {
            "buffer" : 0,
            "byteLength" : 702,
            "byteOffset" : 5320
        },
        {
            "buffer" : 0,
            "byteLength" : 1248,
            "byteOffset" : 6024
        },
        {
            "buffer" : 0,
            "byteLength" : 1248,
            "byteOffset" : 7272
        },
        {
            "buffer" : 0,
            "byteLength" : 832,
            "byteOffset" : 8520
        },
        {
            "buffer" : 0,
            "byteLength" : 832,
            "byteOffset" : 9352
        },
        {
            "buffer" : 0,
            "byteLength" : 624,
            "byteOffset" : 10184
        },
        {
            "buffer" : 0,
            "byteLength" : 1560,
            "byteOffset" : 10808
        },
        {
            "buffer" : 0,
            "byteLength" : 1560,
            "byteOffset" : 12368
        },
        {
            "buffer" : 0,
            "byteLength" : 1040,
            "byteOffset" : 13928
        },
        {
            "buffer" : 0,
            "byteLength" : 1040,
            "byteOffset" : 14968
        },
        {
            "buffer" : 0,
            "byteLength" : 744,
            "byteOffset" : 16008
        },
        {
            "buffer" : 0,
            "byteLength" : 360,
            "byteOffset" : 16752
        },
        {
            "buffer" : 0,
            "byteLength" : 360,
            "byteOffset" : 17112
        },
        {
            "buffer" : 0,
            "byteLength" : 240,
            "byteOffset" : 17472
        },
        {
            "buffer" : 0,
            "byteLength" : 240,
            "byteOffset" : 17712
        },
        {
            "buffer" : 0,
            "byteLength" : 108,
            "byteOffset" : 17952
        },
        {
            "buffer" : 0,
            "byteLength" : 360,
            "byteOffset" : 18060
        },
        {
            "buffer" : 0,
            "byteLength" : 360,
            "byteOffset" : 18420
        },
        {
            "buffer" : 0,
            "byteLength" : 240,
            "byteOffset" : 18780
        },
        {
            "buffer" : 0,
            "byteLength" : 240,
            "byteOffset" : 19020
        },
        {
            "buffer" : 0,
            "byteLength" : 102,
            "byteOffset" : 19260
        },
        {
            "buffer" : 0,
            "byteLength" : 228,
            "byteOffset" : 19364
        },
        {
            "buffer" : 0,
            "byteLength" : 228,
            "byteOffset" : 19592
        },
        {
            "buffer" : 0,
            "byteLength" : 152,
            "byteOffset" : 19820
        },
        {
            "buffer" : 0,
            "byteLength" : 152,
            "byteOffset" : 19972
        },
        {
            "buffer" : 0,
            "byteLength" : 204,
            "byteOffset" : 20124
        },
        {
            "buffer" : 0,
            "byteLength" : 1956,
            "byteOffset" : 20328
        },
        {
            "buffer" : 0,
            "byteLength" : 1956,
            "byteOffset" : 22284
        },
        {
            "buffer" : 0,
            "byteLength" : 1304,
            "byteOffset" : 24240
        },
        {
            "buffer" : 0,
            "byteLength" : 1304,
            "byteOffset" : 25544
        },
        {
            "buffer" : 0,
            "byteLength" : 1128,
            "byteOffset" : 26848
        },
        {
            "buffer" : 0,
            "byteLength" : 360,
            "byteOffset" : 27976
        },
        {
            "buffer" : 0,
            "byteLength" : 360,
            "byteOffset" : 28336
        },
        {
            "buffer" : 0,
            "byteLength" : 240,
            "byteOffset" : 28696
        },
        {
            "buffer" : 0,
            "byteLength" : 240,
            "byteOffset" : 28936
        },
        {
            "buffer" : 0,
            "byteLength" : 360,
            "byteOffset" : 29176
        },
        {
            "buffer" : 0,
            "byteLength" : 360,
            "byteOffset" : 29536
        },
        {
            "buffer" : 0,
            "byteLength" : 240,
            "byteOffset" : 29896
        },
        {
            "buffer" : 0,
            "byteLength" : 240,
            "byteOffset" : 30136
        }
    ],
    "buffers" : [
        {
            "byteLength" : 30376,
            "uri" : "data:application/octet-stream;base64,"
        }
    ]
}
