{
    "asset" : {
        "copyright" : "Reider Munoz",
        "generator" : "Khronos glTF Blender I/O v1.7.33",
        "version" : "2.0"
    },
    "scene" : 0,
    "scenes" : [
        {
            "name" : "Scene",
            "nodes" : [
                0
            ]
        }
    ],
    "nodes" : [
        {
            "mesh" : 0,
            "name" : "brazo-carga",
            "scale" : [
                0.8047782182693481,
                0.8047782182693481,
                0.8047782182693481
            ],
            "translation" : [
                0,
                2.0538392066955566,
                -0.037857115268707275
            ]
        }
    ],
    "materials" : [
        {
            "doubleSided" : true,
            "name" : "MaterialSoporte",
            "pbrMetallicRoughness" : {
                "baseColorFactor" : [
                    0.32354313135147095,
                    0.32354313135147095,
                    0.32354313135147095,
                    1
                ],
                "metallicFactor" : 0.75,
                "roughnessFactor" : 0.4000000059604645
            }
        },
        {
            "doubleSided" : true,
            "emissiveFactor" : [
                0.21156057715415955,
                0.21156057715415955,
                0.21156057715415955
            ],
            "name" : "material-base-maquina",
            "pbrMetallicRoughness" : {
                "baseColorFactor" : [
                    0.027922410517930984,
                    0.2199999988079071,
                    0.011219999752938747,
                    1
                ],
                "metallicFactor" : 0.10000000149011612,
                "roughnessFactor" : 0.20000000298023224
            }
        },
        {
            "doubleSided" : true,
            "emissiveFactor" : [
                0.12598609924316406,
                0.12598609924316406,
                0.12598609924316406
            ],
            "name" : "material-base-maquina2",
            "pbrMetallicRoughness" : {
                "baseColorFactor" : [
                    0.027922410517930984,
                    0.2199999988079071,
                    0.011219999752938747,
                    1
                ],
                "metallicFactor" : 0.10000000149011612,
                "roughnessFactor" : 0.20000000298023224
            }
        }
    ],
    "meshes" : [
        {
            "name" : "brazo-carga",
            "primitives" : [
                {
                    "attributes" : {
                        "POSITION" : 0,
                        "NORMAL" : 1,
                        "TEXCOORD_0" : 2
                    },
                    "indices" : 3,
                    "material" : 0
                },
                {
                    "attributes" : {
                        "POSITION" : 4,
                        "NORMAL" : 5,
                        "TEXCOORD_0" : 6
                    },
                    "indices" : 7,
                    "material" : 1
                },
                {
                    "attributes" : {
                        "POSITION" : 8,
                        "NORMAL" : 9,
                        "TEXCOORD_0" : 10
                    },
                    "indices" : 11,
                    "material" : 2
                }
            ]
        }
    ],
    "accessors" : [
        {
            "bufferView" : 0,
            "componentType" : 5126,
            "count" : 163,
            "max" : [
                0.15000000596046448,
                0.07447177171707153,
                0.15000000596046448
            ],
            "min" : [
                -0.15000000596046448,
                -0.014999999664723873,
                -0.15000000596046448
            ],
            "type" : "VEC3"
        },
        {
            "bufferView" : 1,
            "componentType" : 5126,
            "count" : 163,
            "type" : "VEC3"
        },
        {
            "bufferView" : 2,
            "componentType" : 5126,
            "count" : 163,
            "type" : "VEC2"
        },
        {
            "bufferView" : 3,
            "componentType" : 5123,
            "count" : 564,
            "type" : "SCALAR"
        },
        {
            "bufferView" : 4,
            "componentType" : 5126,
            "count" : 4,
            "max" : [
                0.16767334938049316,
                0.2391357272863388,
                0.4097852110862732
            ],
            "min" : [
                -0.16767334938049316,
                0.2391357272863388,
                -0.4097852110862732
            ],
            "type" : "VEC3"
        },
        {
            "bufferView" : 5,
            "componentType" : 5126,
            "count" : 4,
            "type" : "VEC3"
        },
        {
            "bufferView" : 6,
            "componentType" : 5126,
            "count" : 4,
            "type" : "VEC2"
        },
        {
            "bufferView" : 7,
            "componentType" : 5123,
            "count" : 6,
            "type" : "SCALAR"
        },
        {
            "bufferView" : 8,
            "componentType" : 5126,
            "count" : 20,
            "max" : [
                0.16767334938049316,
                0.2391357272863388,
                0.4097852110862732
            ],
            "min" : [
                -0.16767334938049316,
                0.07528185844421387,
                -0.4097852110862732
            ],
            "type" : "VEC3"
        },
        {
            "bufferView" : 9,
            "componentType" : 5126,
            "count" : 20,
            "type" : "VEC3"
        },
        {
            "bufferView" : 10,
            "componentType" : 5126,
            "count" : 20,
            "type" : "VEC2"
        },
        {
            "bufferView" : 11,
            "componentType" : 5123,
            "count" : 30,
            "type" : "SCALAR"
        }
    ],
    "bufferViews" : [
        {
            "buffer" : 0,
            "byteLength" : 1956,
            "byteOffset" : 0
        },
        {
            "buffer" : 0,
            "byteLength" : 1956,
            "byteOffset" : 1956
        },
        {
            "buffer" : 0,
            "byteLength" : 1304,
            "byteOffset" : 3912
        },
        {
            "buffer" : 0,
            "byteLength" : 1128,
            "byteOffset" : 5216
        },
        {
            "buffer" : 0,
            "byteLength" : 48,
            "byteOffset" : 6344
        },
        {
            "buffer" : 0,
            "byteLength" : 48,
            "byteOffset" : 6392
        },
        {
            "buffer" : 0,
            "byteLength" : 32,
            "byteOffset" : 6440
        },
        {
            "buffer" : 0,
            "byteLength" : 12,
            "byteOffset" : 6472
        },
        {
            "buffer" : 0,
            "byteLength" : 240,
            "byteOffset" : 6484
        },
        {
            "buffer" : 0,
            "byteLength" : 240,
            "byteOffset" : 6724
        },
        {
            "buffer" : 0,
            "byteLength" : 160,
            "byteOffset" : 6964
        },
        {
            "buffer" : 0,
            "byteLength" : 60,
            "byteOffset" : 7124
        }
    ],
    "buffers" : [
        {
            "byteLength" : 7184,
            "uri" : "data:application/octet-stream;base64,"
        }
    ]
}
