{
    "asset" : {
        "copyright" : "Reider Munoz",
        "generator" : "Khronos glTF Blender I/O v1.7.33",
        "version" : "2.0"
    },
    "scene" : 0,
    "scenes" : [
        {
            "name" : "Scene",
            "nodes" : [
                0,
                20,
                21
            ]
        }
    ],
    "nodes" : [
        {
            "name" : "Vac\u00edo",
            "rotation" : [
                0.7071068286895752,
                0,
                0,
                0.7071068286895752
            ]
        },
        {
            "mesh" : 0,
            "name" : "Cube"
        },
        {
            "name" : "Bone.008",
            "rotation" : [
                0.019255734980106354,
                -1.220952494662697e-08,
                -4.0127345890539345e-09,
                0.9998146295547485
            ],
            "scale" : [
                1,
                1.0000001192092896,
                1.0000001192092896
            ],
            "translation" : [
                -1.0325780554491966e-14,
                0.9896324872970581,
                -8.016034058755395e-09
            ]
        },
        {
            "children" : [
                2
            ],
            "name" : "Bone.007",
            "rotation" : [
                0.008278442546725273,
                2.008707644662877e-09,
                -1.6406931369061795e-09,
                0.9999657273292542
            ],
            "scale" : [
                1,
                1.0000001192092896,
                0.9999998807907104
            ],
            "translation" : [
                -1.7242527934960283e-14,
                1.045077919960022,
                -1.2709986663139716e-07
            ]
        },
        {
            "children" : [
                3
            ],
            "name" : "Bone.006",
            "rotation" : [
                -0.01753576286137104,
                -6.13538162497207e-08,
                2.434563217690311e-09,
                0.9998462796211243
            ],
            "scale" : [
                1,
                0.9999999403953552,
                0.9999999403953552
            ],
            "translation" : [
                7.431553677018747e-15,
                1.0077868700027466,
                -6.810336827811625e-08
            ]
        },
        {
            "children" : [
                4
            ],
            "name" : "Bone.005",
            "rotation" : [
                -3.0139517548377626e-09,
                3.8292583326438034e-08,
                3.317478653304352e-16,
                1
            ],
            "translation" : [
                7.734068953031779e-15,
                0.989463210105896,
                2.1736125788152094e-08
            ]
        },
        {
            "children" : [
                5
            ],
            "name" : "Bone.004",
            "rotation" : [
                0.010636521503329277,
                -1.9540877360668674e-08,
                -1.4307635076704628e-09,
                0.9999434351921082
            ],
            "scale" : [
                1,
                0.9999998807907104,
                1
            ],
            "translation" : [
                -2.1651472915305793e-15,
                0.8613953590393066,
                -1.0158853314123917e-07
            ]
        },
        {
            "children" : [
                6
            ],
            "name" : "Bone.003",
            "rotation" : [
                -0.010636517778038979,
                -1.885729972173067e-08,
                1.022317341892176e-09,
                0.9999434351921082
            ],
            "scale" : [
                1,
                1.0000001192092896,
                0.9999998807907104
            ],
            "translation" : [
                4.759606879629896e-15,
                1.0077863931655884,
                -3.4622049671639843e-09
            ]
        },
        {
            "children" : [
                7
            ],
            "name" : "Bone.002",
            "rotation" : [
                -0.019088391214609146,
                1.374832976352991e-07,
                3.327149888932013e-09,
                0.9998177886009216
            ],
            "translation" : [
                2.2534828752920726e-15,
                1.0079540014266968,
                4.38146585679533e-09
            ]
        },
        {
            "children" : [
                8
            ],
            "name" : "Bone.001",
            "rotation" : [
                -0.0009097112924791873,
                -2.0686094615030015e-07,
                -3.3902562979193362e-09,
                0.9999995827674866
            ],
            "scale" : [
                1,
                1.0000003576278687,
                1.0000003576278687
            ],
            "translation" : [
                1.859451787965434e-14,
                1.0000007152557373,
                -2.157282574799524e-09
            ]
        },
        {
            "children" : [
                9
            ],
            "name" : "Bone",
            "rotation" : [
                2.384184938364342e-07,
                3.07499163909597e-08,
                7.109301686301743e-15,
                1
            ],
            "translation" : [
                4.5448662611136115e-09,
                -3.5762791839033525e-08,
                0.30000004172325134
            ]
        },
        {
            "name" : "Bone.017",
            "rotation" : [
                -0.020462458953261375,
                -3.045423952624006e-14,
                2.7483002540407142e-08,
                0.9997906684875488
            ],
            "scale" : [
                1,
                1.0000001192092896,
                1.0000001192092896
            ],
            "translation" : [
                -6.983707367827843e-14,
                0.9671528339385986,
                -1.4307889273368346e-07
            ]
        },
        {
            "children" : [
                11
            ],
            "name" : "Bone.016",
            "rotation" : [
                -0.011060921475291252,
                1.1131360725747177e-13,
                1.4855840113625618e-08,
                0.9999388456344604
            ],
            "scale" : [
                1,
                1,
                1.0000001192092896
            ],
            "translation" : [
                2.557170241616197e-13,
                1.0822625160217285,
                2.11035757757827e-08
            ]
        },
        {
            "children" : [
                12
            ],
            "name" : "Bone.015",
            "rotation" : [
                0.017638783901929855,
                -4.055924207602146e-10,
                -7.066444096537339e-10,
                0.9998444318771362
            ],
            "scale" : [
                1,
                1.0000001192092896,
                0.9999998807907104
            ],
            "translation" : [
                2.580357802428601e-14,
                0.9543445706367493,
                -3.126301661993125e-09
            ]
        },
        {
            "children" : [
                13
            ],
            "name" : "Bone.014",
            "rotation" : [
                0.012342841364443302,
                -1.3334590376334887e-10,
                -5.75634961919036e-09,
                0.999923825263977
            ],
            "scale" : [
                1,
                1.000000238418579,
                1.0000001192092896
            ],
            "translation" : [
                9.324062789223264e-14,
                1.0310066938400269,
                5.139164827028253e-08
            ]
        },
        {
            "children" : [
                14
            ],
            "name" : "Bone.013",
            "rotation" : [
                -0.012342826463282108,
                3.81794457160467e-11,
                1.9675985285516617e-08,
                0.999923825263977
            ],
            "scale" : [
                1,
                1.0000004768371582,
                1.000000238418579
            ],
            "translation" : [
                1.1430052325629714e-13,
                0.9034467339515686,
                -5.257196278307674e-08
            ]
        },
        {
            "children" : [
                15
            ],
            "name" : "Bone.012",
            "rotation" : [
                0.006172488909214735,
                1.972050647780499e-11,
                -1.1461573024007521e-08,
                0.9999809861183167
            ],
            "scale" : [
                1,
                0.9999999403953552,
                1
            ],
            "translation" : [
                6.750460921581963e-14,
                1.030770182609558,
                -5.587654428040878e-08
            ]
        },
        {
            "children" : [
                16
            ],
            "name" : "Bone.011",
            "rotation" : [
                -0.016171539202332497,
                2.0558181546004306e-10,
                5.504991662519387e-08,
                0.9998692274093628
            ],
            "scale" : [
                1,
                0.9999998211860657,
                1.0000001192092896
            ],
            "translation" : [
                4.269606789972756e-14,
                0.9985264539718628,
                7.034984594866955e-09
            ]
        },
        {
            "children" : [
                17
            ],
            "name" : "Bone.010",
            "rotation" : [
                -0.041762880980968475,
                -4.263950581506748e-10,
                4.266782127615443e-08,
                0.9991275668144226
            ],
            "scale" : [
                1,
                0.9999999403953552,
                0.9999997615814209
            ],
            "translation" : [
                8.450523131730767e-14,
                0.9739829301834106,
                2.253251629724673e-08
            ]
        },
        {
            "children" : [
                18
            ],
            "name" : "Bone.009",
            "rotation" : [
                6.712052140755986e-07,
                0.031770434230566025,
                0.9994952082633972,
                2.1335207378569976e-08
            ],
            "scale" : [
                1,
                0.9999995231628418,
                0.9999998807907104
            ],
            "translation" : [
                4.029267017813254e-07,
                0.019052516669034958,
                0.29939448833465576
            ]
        },
        {
            "children" : [
                1,
                10,
                19
            ],
            "name" : "Esqueleto",
            "rotation" : [
                0.7071068286895752,
                0,
                0,
                0.7071068286895752
            ],
            "scale" : [
                0.5036047101020813,
                0.5036047101020813,
                0.5036047101020813
            ]
        },
        {
            "mesh" : 1,
            "name" : "Cubo.002",
            "rotation" : [
                0.006396915297955275,
                0,
                0,
                0.999979555606842
            ],
            "scale" : [
                0.5,
                0.15648715198040009,
                1.25
            ],
            "translation" : [
                0,
                -0.5032938718795776,
                1.2364561557769775
            ]
        }
    ],
    "materials" : [
        {
            "doubleSided" : true,
            "name" : "Material.001",
            "pbrMetallicRoughness" : {
                "baseColorFactor" : [
                    0.8000000715255737,
                    0.3557015359401703,
                    0,
                    1
                ],
                "metallicFactor" : 0,
                "roughnessFactor" : 0.4000000059604645
            }
        },
        {
            "doubleSided" : true,
            "name" : "Material.002",
            "pbrMetallicRoughness" : {
                "baseColorFactor" : [
                    0.8000000715255737,
                    0.3557015359401703,
                    0,
                    1
                ],
                "metallicFactor" : 0,
                "roughnessFactor" : 0.4000000059604645
            }
        }
    ],
    "meshes" : [
        {
            "name" : "Cube.001",
            "primitives" : [
                {
                    "attributes" : {
                        "POSITION" : 0,
                        "NORMAL" : 1,
                        "TEXCOORD_0" : 2,
                        "TEXCOORD_1" : 3
                    },
                    "indices" : 4,
                    "material" : 0
                }
            ]
        },
        {
            "name" : "Cubo.001",
            "primitives" : [
                {
                    "attributes" : {
                        "POSITION" : 5,
                        "NORMAL" : 6,
                        "TEXCOORD_0" : 7
                    },
                    "indices" : 8,
                    "material" : 1
                }
            ]
        }
    ],
    "accessors" : [
        {
            "bufferView" : 0,
            "componentType" : 5126,
            "count" : 1066,
            "max" : [
                0.9928432703018188,
                8.969178199768066,
                1.295769214630127
            ],
            "min" : [
                -0.9928425550460815,
                -8.947988510131836,
                -0.9910919666290283
            ],
            "type" : "VEC3"
        },
        {
            "bufferView" : 1,
            "componentType" : 5126,
            "count" : 1066,
            "type" : "VEC3"
        },
        {
            "bufferView" : 2,
            "componentType" : 5126,
            "count" : 1066,
            "type" : "VEC2"
        },
        {
            "bufferView" : 3,
            "componentType" : 5126,
            "count" : 1066,
            "type" : "VEC2"
        },
        {
            "bufferView" : 4,
            "componentType" : 5123,
            "count" : 1284,
            "type" : "SCALAR"
        },
        {
            "bufferView" : 5,
            "componentType" : 5126,
            "count" : 24,
            "max" : [
                1,
                0.2780601680278778,
                1
            ],
            "min" : [
                -1,
                -1,
                -1
            ],
            "type" : "VEC3"
        },
        {
            "bufferView" : 6,
            "componentType" : 5126,
            "count" : 24,
            "type" : "VEC3"
        },
        {
            "bufferView" : 7,
            "componentType" : 5126,
            "count" : 24,
            "type" : "VEC2"
        },
        {
            "bufferView" : 8,
            "componentType" : 5123,
            "count" : 36,
            "type" : "SCALAR"
        }
    ],
    "bufferViews" : [
        {
            "buffer" : 0,
            "byteLength" : 12792,
            "byteOffset" : 0
        },
        {
            "buffer" : 0,
            "byteLength" : 12792,
            "byteOffset" : 12792
        },
        {
            "buffer" : 0,
            "byteLength" : 8528,
            "byteOffset" : 25584
        },
        {
            "buffer" : 0,
            "byteLength" : 8528,
            "byteOffset" : 34112
        },
        {
            "buffer" : 0,
            "byteLength" : 2568,
            "byteOffset" : 42640
        },
        {
            "buffer" : 0,
            "byteLength" : 288,
            "byteOffset" : 45208
        },
        {
            "buffer" : 0,
            "byteLength" : 288,
            "byteOffset" : 45496
        },
        {
            "buffer" : 0,
            "byteLength" : 192,
            "byteOffset" : 45784
        },
        {
            "buffer" : 0,
            "byteLength" : 72,
            "byteOffset" : 45976
        }
    ],
    "buffers" : [
        {
            "byteLength" : 46048,
            "uri" : "data:application/octet-stream;base64,"
        }
    ]
}
