{
    "asset" : {
        "generator" : "Khronos glTF Blender I/O v3.2.40",
        "version" : "2.0"
    },
    "scene" : 0,
    "scenes" : [
        {
            "name" : "Scene",
            "nodes" : [
                1,
                2,
                3
            ]
        }
    ],
    "nodes" : [
        {
            "mesh" : 0,
            "name" : "garra_10961914",
            "translation" : [
                0,
                -951.083984375,
                -2035.5362548828125
            ]
        },
        {
            "children" : [
                0
            ],
            "name" : "main",
            "rotation" : [
                0.7071068286895752,
                0,
                0,
                0.7071067094802856
            ],
            "scale" : [
                0.0010000000474974513,
                0.0010000001639127731,
                0.0010000001639127731
            ]
        },
        {
            "mesh" : 1,
            "name" : "Cilindro",
            "scale" : [
                0.012500000186264515,
                0.15000000596046448,
                0.012500000186264515
            ],
            "translation" : [
                0.002506999997422099,
                2.4859085083007812,
                -0.9487789869308472
            ]
        },
        {
            "mesh" : 2,
            "name" : "Cube.001",
            "scale" : [
                0.05000000074505806,
                0.17499999701976776,
                0.05000000074505806
            ],
            "translation" : [
                0.004999999888241291,
                2.9600000381469727,
                -0.9500000476837158
            ]
        }
    ],
    "materials" : [
        {
            "doubleSided" : true,
            "name" : "Material.003",
            "pbrMetallicRoughness" : {
                "baseColorFactor" : [
                    0.04101300612092018,
                    0.1469999998807907,
                    0.07259711623191833,
                    1
                ],
                "metallicFactor" : 0,
                "roughnessFactor" : 0.5
            }
        },
        {
            "doubleSided" : true,
            "name" : "Material.001",
            "pbrMetallicRoughness" : {
                "baseColorFactor" : [
                    0.5088814496994019,
                    0.5088813304901123,
                    0.5088813900947571,
                    1
                ],
                "metallicFactor" : 0,
                "roughnessFactor" : 0.5
            }
        },
        {
            "doubleSided" : true,
            "name" : "Material.002",
            "pbrMetallicRoughness" : {
                "baseColorFactor" : [
                    0.041076745837926865,
                    0.14730100333690643,
                    0.07301192730665207,
                    1
                ],
                "metallicFactor" : 0,
                "roughnessFactor" : 0.5
            }
        }
    ],
    "meshes" : [
        {
            "name" : "75767",
            "primitives" : [
                {
                    "attributes" : {
                        "POSITION" : 0,
                        "NORMAL" : 1,
                        "TEXCOORD_0" : 2
                    },
                    "indices" : 3,
                    "material" : 0
                }
            ]
        },
        {
            "name" : "Cilindro",
            "primitives" : [
                {
                    "attributes" : {
                        "POSITION" : 4,
                        "NORMAL" : 5,
                        "TEXCOORD_0" : 6
                    },
                    "indices" : 7,
                    "material" : 1
                }
            ]
        },
        {
            "name" : "Cube.002",
            "primitives" : [
                {
                    "attributes" : {
                        "POSITION" : 8,
                        "NORMAL" : 9,
                        "TEXCOORD_0" : 10
                    },
                    "indices" : 11,
                    "material" : 2
                }
            ]
        }
    ],
    "accessors" : [
        {
            "bufferView" : 0,
            "componentType" : 5126,
            "count" : 4841,
            "max" : [
                142,
                450.9996337890625,
                -537.1591186523438
            ],
            "min" : [
                -129,
                -450,
                -1222.069091796875
            ],
            "type" : "VEC3"
        },
        {
            "bufferView" : 1,
            "componentType" : 5126,
            "count" : 4841,
            "type" : "VEC3"
        },
        {
            "bufferView" : 2,
            "componentType" : 5126,
            "count" : 4841,
            "type" : "VEC2"
        },
        {
            "bufferView" : 3,
            "componentType" : 5123,
            "count" : 12114,
            "type" : "SCALAR"
        },
        {
            "bufferView" : 4,
            "componentType" : 5126,
            "count" : 592,
            "max" : [
                1,
                1,
                0.9999923706054688
            ],
            "min" : [
                -1,
                -1,
                -1.0000076293945312
            ],
            "type" : "VEC3"
        },
        {
            "bufferView" : 5,
            "componentType" : 5126,
            "count" : 592,
            "type" : "VEC3"
        },
        {
            "bufferView" : 6,
            "componentType" : 5126,
            "count" : 592,
            "type" : "VEC2"
        },
        {
            "bufferView" : 7,
            "componentType" : 5123,
            "count" : 768,
            "type" : "SCALAR"
        },
        {
            "bufferView" : 8,
            "componentType" : 5126,
            "count" : 24,
            "max" : [
                1,
                1,
                1
            ],
            "min" : [
                -1,
                -1,
                -1
            ],
            "type" : "VEC3"
        },
        {
            "bufferView" : 9,
            "componentType" : 5126,
            "count" : 24,
            "type" : "VEC3"
        },
        {
            "bufferView" : 10,
            "componentType" : 5126,
            "count" : 24,
            "type" : "VEC2"
        },
        {
            "bufferView" : 11,
            "componentType" : 5123,
            "count" : 36,
            "type" : "SCALAR"
        }
    ],
    "bufferViews" : [
        {
            "buffer" : 0,
            "byteLength" : 58092,
            "byteOffset" : 0
        },
        {
            "buffer" : 0,
            "byteLength" : 58092,
            "byteOffset" : 58092
        },
        {
            "buffer" : 0,
            "byteLength" : 38728,
            "byteOffset" : 116184
        },
        {
            "buffer" : 0,
            "byteLength" : 24228,
            "byteOffset" : 154912
        },
        {
            "buffer" : 0,
            "byteLength" : 7104,
            "byteOffset" : 179140
        },
        {
            "buffer" : 0,
            "byteLength" : 7104,
            "byteOffset" : 186244
        },
        {
            "buffer" : 0,
            "byteLength" : 4736,
            "byteOffset" : 193348
        },
        {
            "buffer" : 0,
            "byteLength" : 1536,
            "byteOffset" : 198084
        },
        {
            "buffer" : 0,
            "byteLength" : 288,
            "byteOffset" : 199620
        },
        {
            "buffer" : 0,
            "byteLength" : 288,
            "byteOffset" : 199908
        },
        {
            "buffer" : 0,
            "byteLength" : 192,
            "byteOffset" : 200196
        },
        {
            "buffer" : 0,
            "byteLength" : 72,
            "byteOffset" : 200388
        }
    ],
    "buffers" : [
        {
            "byteLength" : 200460,
            "uri" : "data:application/octet-stream;base64,"
        }
    ]
}
