{
    "asset" : {
        "copyright" : "Reider Mu\u00f1oz",
        "generator" : "Khronos glTF Blender I/O v1.7.33",
        "version" : "2.0"
    },
    "scene" : 0,
    "scenes" : [
        {
            "name" : "Scene",
            "nodes" : [
                1,
                2
            ]
        }
    ],
    "nodes" : [
        {
            "mesh" : 0,
            "name" : "10961914",
            "translation" : [
                0,
                -951.0840454101562,
                -2035.5361328125
            ]
        },
        {
            "children" : [
                0
            ],
            "name" : "main",
            "rotation" : [
                0.7071068286895752,
                0,
                0,
                0.7071068286895752
            ],
            "scale" : [
                0.0010000000474974513,
                0.0010000000474974513,
                0.0010000000474974513
            ]
        },
        {
            "mesh" : 1,
            "name" : "Cilindro",
            "scale" : [
                0.012500000186264515,
                0.15000000596046448,
                0.012500000186264515
            ],
            "translation" : [
                0.002506999997422099,
                2.4859085083007812,
                -0.9487789869308472
            ]
        }
    ],
    "materials" : [
        {
            "doubleSided" : true,
            "name" : "Material.002",
            "normalTexture" : {
                "index" : 0
            },
            "pbrMetallicRoughness" : {
                "baseColorTexture" : {
                    "index" : 1
                },
                "metallicRoughnessTexture" : {
                    "index" : 2
                }
            }
        },
        {
            "doubleSided" : true,
            "name" : "Material",
            "normalTexture" : {
                "index" : 3
            },
            "pbrMetallicRoughness" : {
                "baseColorTexture" : {
                    "index" : 4
                },
                "metallicFactor" : 0,
                "metallicRoughnessTexture" : {
                    "index" : 5
                }
            }
        }
    ],
    "meshes" : [
        {
            "name" : "75767",
            "primitives" : [
                {
                    "attributes" : {
                        "POSITION" : 0,
                        "NORMAL" : 1,
                        "TEXCOORD_0" : 2
                    },
                    "indices" : 3,
                    "material" : 0
                }
            ]
        },
        {
            "name" : "Cilindro",
            "primitives" : [
                {
                    "attributes" : {
                        "POSITION" : 4,
                        "NORMAL" : 5,
                        "TEXCOORD_0" : 6
                    },
                    "indices" : 7,
                    "material" : 1
                }
            ]
        }
    ],
    "textures" : [
        {
            "sampler" : 0,
            "source" : 0
        },
        {
            "sampler" : 0,
            "source" : 1
        },
        {
            "sampler" : 0,
            "source" : 2
        },
        {
            "sampler" : 0,
            "source" : 3
        },
        {
            "sampler" : 0,
            "source" : 4
        },
        {
            "sampler" : 0,
            "source" : 5
        }
    ],
    "images" : [
        {
            "mimeType" : "image/png",
            "name" : "green_metal_rust_nor_gl_4k",
            "uri" : "Texturas/green_metal_rust_nor_gl_4k.png"
        },
        {
            "mimeType" : "image/jpeg",
            "name" : "green_metal_rust_diff_4k",
            "uri" : "Texturas/green_metal_rust_diff_4k.jpg"
        },
        {
            "mimeType" : "image/png",
            "name" : "green_metal_rust_diff_4k.jpg-green_metal_rust_rough_4k",
            "uri" : "Texturas/green_metal_rust_diff_4k_jpg-green_metal_rust_rough_4k.png"
        },
        {
            "mimeType" : "image/png",
            "name" : "rust_coarse_01_nor_gl_4k",
            "uri" : "Texturas/rust_coarse_01_nor_gl_4k.png"
        },
        {
            "mimeType" : "image/jpeg",
            "name" : "rust_coarse_01_diff_4k",
            "uri" : "Texturas/rust_coarse_01_diff_4k.jpg"
        },
        {
            "mimeType" : "image/png",
            "name" : "rust_coarse_01_rough_4k",
            "uri" : "Texturas/rust_coarse_01_rough_4k.png"
        }
    ],
    "accessors" : [
        {
            "bufferView" : 0,
            "componentType" : 5126,
            "count" : 4521,
            "max" : [
                142,
                450.9996337890625,
                -537.1591186523438
            ],
            "min" : [
                -129,
                -450,
                -1222.069091796875
            ],
            "type" : "VEC3"
        },
        {
            "bufferView" : 1,
            "componentType" : 5126,
            "count" : 4521,
            "type" : "VEC3"
        },
        {
            "bufferView" : 2,
            "componentType" : 5126,
            "count" : 4521,
            "type" : "VEC2"
        },
        {
            "bufferView" : 3,
            "componentType" : 5123,
            "count" : 11958,
            "type" : "SCALAR"
        },
        {
            "bufferView" : 4,
            "componentType" : 5126,
            "count" : 392,
            "max" : [
                1,
                1,
                0.9999923706054688
            ],
            "min" : [
                -1,
                -1,
                -1.0000076293945312
            ],
            "type" : "VEC3"
        },
        {
            "bufferView" : 5,
            "componentType" : 5126,
            "count" : 392,
            "type" : "VEC3"
        },
        {
            "bufferView" : 6,
            "componentType" : 5126,
            "count" : 392,
            "type" : "VEC2"
        },
        {
            "bufferView" : 7,
            "componentType" : 5123,
            "count" : 768,
            "type" : "SCALAR"
        }
    ],
    "bufferViews" : [
        {
            "buffer" : 0,
            "byteLength" : 54252,
            "byteOffset" : 0
        },
        {
            "buffer" : 0,
            "byteLength" : 54252,
            "byteOffset" : 54252
        },
        {
            "buffer" : 0,
            "byteLength" : 36168,
            "byteOffset" : 108504
        },
        {
            "buffer" : 0,
            "byteLength" : 23916,
            "byteOffset" : 144672
        },
        {
            "buffer" : 0,
            "byteLength" : 4704,
            "byteOffset" : 168588
        },
        {
            "buffer" : 0,
            "byteLength" : 4704,
            "byteOffset" : 173292
        },
        {
            "buffer" : 0,
            "byteLength" : 3136,
            "byteOffset" : 177996
        },
        {
            "buffer" : 0,
            "byteLength" : 1536,
            "byteOffset" : 181132
        }
    ],
    "samplers" : [
        {
            "magFilter" : 9729,
            "minFilter" : 9987
        }
    ],
    "buffers" : [
        {
            "byteLength" : 182668,
            "uri" : "Garra.bin"
        }
    ]
}
