{
    "asset" : {
        "generator" : "Khronos glTF Blender I/O v1.7.33",
        "version" : "2.0"
    },
    "extensionsUsed" : [
        "KHR_materials_clearcoat"
    ],
    "scene" : 0,
    "scenes" : [
        {
            "name" : "Scene",
            "nodes" : [
                1,
                2
            ]
        }
    ],
    "nodes" : [
        {
            "mesh" : 0,
            "name" : "10961914",
            "translation" : [
                0,
                -951.0840454101562,
                -2035.5361328125
            ]
        },
        {
            "children" : [
                0
            ],
            "name" : "main",
            "rotation" : [
                0.7071068286895752,
                0,
                0,
                0.7071068286895752
            ],
            "scale" : [
                0.0010000000474974513,
                0.0010000000474974513,
                0.0010000000474974513
            ]
        },
        {
            "mesh" : 1,
            "name" : "Cilindro",
            "scale" : [
                0.019999999552965164,
                0.25,
                0.019999999552965164
            ],
            "translation" : [
                0.002506999997422099,
                2.404910087585449,
                -0.9487789869308472
            ]
        }
    ],
    "materials" : [
        {
            "doubleSided" : true,
            "name" : "Material_2",
            "pbrMetallicRoughness" : {
                "baseColorFactor" : [
                    0.36000001430511475,
                    0.36000001430511475,
                    0.36000001430511475,
                    1
                ],
                "roughnessFactor" : 0.10000000149011612
            }
        },
        {
            "doubleSided" : true,
            "extensions" : {
                "KHR_materials_clearcoat" : {
                    "clearcoatFactor" : 0.5,
                    "clearcoatRoughnessFactor" : 0.8999999761581421
                }
            },
            "name" : "Material",
            "pbrMetallicRoughness" : {
                "baseColorFactor" : [
                    0.15294557809829712,
                    0.03884704038500786,
                    0.014245537109673023,
                    1
                ],
                "roughnessFactor" : 0.5
            }
        }
    ],
    "meshes" : [
        {
            "name" : "75767",
            "primitives" : [
                {
                    "attributes" : {
                        "POSITION" : 0,
                        "NORMAL" : 1,
                        "TEXCOORD_0" : 2
                    },
                    "indices" : 3,
                    "material" : 0
                }
            ]
        },
        {
            "name" : "Cilindro",
            "primitives" : [
                {
                    "attributes" : {
                        "POSITION" : 4,
                        "NORMAL" : 5,
                        "TEXCOORD_0" : 6
                    },
                    "indices" : 7,
                    "material" : 1
                }
            ]
        }
    ],
    "accessors" : [
        {
            "bufferView" : 0,
            "componentType" : 5126,
            "count" : 4521,
            "max" : [
                142,
                450.9996337890625,
                -537.1591186523438
            ],
            "min" : [
                -129,
                -450,
                -1222.069091796875
            ],
            "type" : "VEC3"
        },
        {
            "bufferView" : 1,
            "componentType" : 5126,
            "count" : 4521,
            "type" : "VEC3"
        },
        {
            "bufferView" : 2,
            "componentType" : 5126,
            "count" : 4521,
            "type" : "VEC2"
        },
        {
            "bufferView" : 3,
            "componentType" : 5123,
            "count" : 11958,
            "type" : "SCALAR"
        },
        {
            "bufferView" : 4,
            "componentType" : 5126,
            "count" : 414,
            "max" : [
                1,
                1,
                1
            ],
            "min" : [
                -1,
                -1,
                -1
            ],
            "type" : "VEC3"
        },
        {
            "bufferView" : 5,
            "componentType" : 5126,
            "count" : 414,
            "type" : "VEC3"
        },
        {
            "bufferView" : 6,
            "componentType" : 5126,
            "count" : 414,
            "type" : "VEC2"
        },
        {
            "bufferView" : 7,
            "componentType" : 5123,
            "count" : 816,
            "type" : "SCALAR"
        }
    ],
    "bufferViews" : [
        {
            "buffer" : 0,
            "byteLength" : 54252,
            "byteOffset" : 0
        },
        {
            "buffer" : 0,
            "byteLength" : 54252,
            "byteOffset" : 54252
        },
        {
            "buffer" : 0,
            "byteLength" : 36168,
            "byteOffset" : 108504
        },
        {
            "buffer" : 0,
            "byteLength" : 23916,
            "byteOffset" : 144672
        },
        {
            "buffer" : 0,
            "byteLength" : 4968,
            "byteOffset" : 168588
        },
        {
            "buffer" : 0,
            "byteLength" : 4968,
            "byteOffset" : 173556
        },
        {
            "buffer" : 0,
            "byteLength" : 3312,
            "byteOffset" : 178524
        },
        {
            "buffer" : 0,
            "byteLength" : 1632,
            "byteOffset" : 181836
        }
    ],
    "buffers" : [
        {
            "byteLength" : 183468,
            "uri" : "data:application/octet-stream;base64,"
        }
    ]
}
