{
    "asset" : {
        "copyright" : "Reider Munoz",
        "generator" : "Khronos glTF Blender I/O v1.7.33",
        "version" : "2.0"
    },
    "scene" : 0,
    "scenes" : [
        {
            "name" : "Scene",
            "nodes" : [
                6
            ]
        }
    ],
    "nodes" : [
        {
            "name" : "Bone.004",
            "rotation" : [
                0.009614001028239727,
                -6.332033840124435e-17,
                -2.2921564646338766e-09,
                0.9999538064002991
            ],
            "scale" : [
                1,
                1.000000238418579,
                1.000000238418579
            ],
            "translation" : [
                -1.4283462379440642e-14,
                0.22250540554523468,
                -5.87485082803596e-08
            ]
        },
        {
            "children" : [
                0
            ],
            "name" : "Bone.003",
            "rotation" : [
                -0.013509834185242653,
                -3.6397823130311386e-15,
                3.2209952482986637e-09,
                0.9999087452888489
            ],
            "scale" : [
                1,
                0.9999998807907104,
                0.9999999403953552
            ],
            "translation" : [
                -2.1608045959616538e-14,
                0.32942813634872437,
                -3.0331058553656476e-08
            ]
        },
        {
            "children" : [
                1
            ],
            "name" : "Bone.002",
            "rotation" : [
                0.026661960408091545,
                3.5470355934385817e-15,
                -6.356706272470092e-09,
                0.9996445178985596
            ],
            "scale" : [
                1,
                1.0000001192092896,
                1.0000001192092896
            ],
            "translation" : [
                -3.58719130788554e-15,
                0.3383251428604126,
                -1.365226509619788e-08
            ]
        },
        {
            "children" : [
                2
            ],
            "name" : "Bone.001",
            "rotation" : [
                -0.01315440982580185,
                9.888780772182405e-17,
                3.1362556995873092e-09,
                0.9999135732650757
            ],
            "translation" : [
                -4.551880943161725e-15,
                0.3350319564342499,
                -1.6964264659691253e-08
            ]
        },
        {
            "children" : [
                3
            ],
            "name" : "Bone",
            "rotation" : [
                1,
                -1.1046504795684652e-14,
                -1.1920928955078125e-07,
                1.0408147943508084e-07
            ],
            "translation" : [
                1.6995701528278755e-16,
                0.7654183506965637,
                0.618564784526825
            ]
        },
        {
            "mesh" : 0,
            "name" : "Cube",
            "skin" : 0
        },
        {
            "children" : [
                5,
                4
            ],
            "name" : "Esqueleto",
            "translation" : [
                0,
                0.7031168341636658,
                -0.6141147017478943
            ]
        }
    ],
    "animations" : [
        {
            "channels" : [
                {
                    "sampler" : 0,
                    "target" : {
                        "node" : 2,
                        "path" : "rotation"
                    }
                },
                {
                    "sampler" : 1,
                    "target" : {
                        "node" : 1,
                        "path" : "rotation"
                    }
                },
                {
                    "sampler" : 2,
                    "target" : {
                        "node" : 1,
                        "path" : "scale"
                    }
                },
                {
                    "sampler" : 3,
                    "target" : {
                        "node" : 0,
                        "path" : "rotation"
                    }
                },
                {
                    "sampler" : 4,
                    "target" : {
                        "node" : 0,
                        "path" : "scale"
                    }
                }
            ],
            "name" : "EsqueletoAction",
            "samplers" : [
                {
                    "input" : 7,
                    "interpolation" : "LINEAR",
                    "output" : 8
                },
                {
                    "input" : 9,
                    "interpolation" : "LINEAR",
                    "output" : 10
                },
                {
                    "input" : 7,
                    "interpolation" : "LINEAR",
                    "output" : 11
                },
                {
                    "input" : 9,
                    "interpolation" : "LINEAR",
                    "output" : 12
                },
                {
                    "input" : 7,
                    "interpolation" : "LINEAR",
                    "output" : 13
                }
            ]
        }
    ],
    "materials" : [
        {
            "doubleSided" : true,
            "name" : "Material",
            "pbrMetallicRoughness" : {
                "baseColorFactor" : [
                    0.800000011920929,
                    0.800000011920929,
                    0.800000011920929,
                    1
                ],
                "metallicFactor" : 0,
                "roughnessFactor" : 0.4000000059604645
            }
        }
    ],
    "meshes" : [
        {
            "name" : "Cube",
            "primitives" : [
                {
                    "attributes" : {
                        "POSITION" : 0,
                        "NORMAL" : 1,
                        "TEXCOORD_0" : 2,
                        "JOINTS_0" : 3,
                        "WEIGHTS_0" : 4
                    },
                    "indices" : 5,
                    "material" : 0
                }
            ]
        }
    ],
    "skins" : [
        {
            "inverseBindMatrices" : 6,
            "joints" : [
                4,
                3,
                2,
                1,
                0
            ],
            "name" : "Esqueleto"
        }
    ],
    "accessors" : [
        {
            "bufferView" : 0,
            "componentType" : 5126,
            "count" : 56,
            "max" : [
                0.25,
                1.5,
                0.25
            ],
            "min" : [
                -0.25,
                0,
                -0.25
            ],
            "type" : "VEC3"
        },
        {
            "bufferView" : 1,
            "componentType" : 5126,
            "count" : 56,
            "type" : "VEC3"
        },
        {
            "bufferView" : 2,
            "componentType" : 5126,
            "count" : 56,
            "type" : "VEC2"
        },
        {
            "bufferView" : 3,
            "componentType" : 5121,
            "count" : 56,
            "type" : "VEC4"
        },
        {
            "bufferView" : 4,
            "componentType" : 5126,
            "count" : 56,
            "type" : "VEC4"
        },
        {
            "bufferView" : 5,
            "componentType" : 5123,
            "count" : 132,
            "type" : "SCALAR"
        },
        {
            "bufferView" : 6,
            "componentType" : 5126,
            "count" : 5,
            "type" : "MAT4"
        },
        {
            "bufferView" : 7,
            "componentType" : 5126,
            "count" : 2,
            "max" : [
                10.416666666666666
            ],
            "min" : [
                0
            ],
            "type" : "SCALAR"
        },
        {
            "bufferView" : 8,
            "componentType" : 5126,
            "count" : 2,
            "type" : "VEC4"
        },
        {
            "bufferView" : 9,
            "componentType" : 5126,
            "count" : 251,
            "max" : [
                10.416666666666666
            ],
            "min" : [
                0
            ],
            "type" : "SCALAR"
        },
        {
            "bufferView" : 10,
            "componentType" : 5126,
            "count" : 251,
            "type" : "VEC4"
        },
        {
            "bufferView" : 11,
            "componentType" : 5126,
            "count" : 2,
            "type" : "VEC3"
        },
        {
            "bufferView" : 12,
            "componentType" : 5126,
            "count" : 251,
            "type" : "VEC4"
        },
        {
            "bufferView" : 13,
            "componentType" : 5126,
            "count" : 2,
            "type" : "VEC3"
        }
    ],
    "bufferViews" : [
        {
            "buffer" : 0,
            "byteLength" : 672,
            "byteOffset" : 0
        },
        {
            "buffer" : 0,
            "byteLength" : 672,
            "byteOffset" : 672
        },
        {
            "buffer" : 0,
            "byteLength" : 448,
            "byteOffset" : 1344
        },
        {
            "buffer" : 0,
            "byteLength" : 224,
            "byteOffset" : 1792
        },
        {
            "buffer" : 0,
            "byteLength" : 896,
            "byteOffset" : 2016
        },
        {
            "buffer" : 0,
            "byteLength" : 264,
            "byteOffset" : 2912
        },
        {
            "buffer" : 0,
            "byteLength" : 320,
            "byteOffset" : 3176
        },
        {
            "buffer" : 0,
            "byteLength" : 8,
            "byteOffset" : 3496
        },
        {
            "buffer" : 0,
            "byteLength" : 32,
            "byteOffset" : 3504
        },
        {
            "buffer" : 0,
            "byteLength" : 1004,
            "byteOffset" : 3536
        },
        {
            "buffer" : 0,
            "byteLength" : 4016,
            "byteOffset" : 4540
        },
        {
            "buffer" : 0,
            "byteLength" : 24,
            "byteOffset" : 8556
        },
        {
            "buffer" : 0,
            "byteLength" : 4016,
            "byteOffset" : 8580
        },
        {
            "buffer" : 0,
            "byteLength" : 24,
            "byteOffset" : 12596
        }
    ],
    "buffers" : [
        {
            "byteLength" : 12620,
            "uri" : "data:application/octet-stream;base64,"
        }
    ]
}
