{
    "asset" : {
        "copyright" : "Reider Mu\u00f1oz",
        "generator" : "Khronos glTF Blender I/O v1.7.33",
        "version" : "2.0"
    },
    "scene" : 0,
    "scenes" : [
        {
            "name" : "Scene",
            "nodes" : [
                1,
                6,
                7
            ]
        }
    ],
    "nodes" : [
        {
            "mesh" : 0,
            "name" : "10961914",
            "translation" : [
                -5.800114631652832,
                638.5526123046875,
                -1416.1668701171875
            ]
        },
        {
            "children" : [
                0
            ],
            "name" : "main",
            "rotation" : [
                0.7071068286895752,
                0,
                0,
                0.7071068286895752
            ],
            "scale" : [
                0.0010000000474974513,
                0.0010000000474974513,
                0.0010000000474974513
            ],
            "translation" : [
                0,
                0.5979706048965454,
                0
            ]
        },
        {
            "mesh" : 1,
            "name" : "defaultMaterial",
            "scale" : [
                1,
                1,
                1.4999996423721313
            ]
        },
        {
            "children" : [
                2
            ],
            "name" : "Box001"
        },
        {
            "children" : [
                3
            ],
            "name" : "Collada visual scene group",
            "rotation" : [
                0.7071068286895752,
                0,
                0,
                0.7071068286895752
            ]
        },
        {
            "children" : [
                4
            ],
            "name" : "RootNode (model correction matrix)"
        },
        {
            "children" : [
                5
            ],
            "name" : "RootNode (gltf orientation matrix)",
            "rotation" : [
                -0.7071068286895752,
                0,
                0,
                0.7071068286895752
            ],
            "translation" : [
                0,
                0.5979706048965454,
                0
            ]
        },
        {
            "mesh" : 2,
            "name" : "Cilindro",
            "scale" : [
                0.019999999552965164,
                0.25,
                0.019999999552965164
            ],
            "translation" : [
                -0.006492000073194504,
                2.617767095565796,
                0.6377859711647034
            ]
        }
    ],
    "materials" : [
        {
            "doubleSided" : true,
            "name" : "Material.003",
            "normalTexture" : {
                "index" : 0
            },
            "pbrMetallicRoughness" : {
                "baseColorTexture" : {
                    "index" : 1
                },
                "metallicRoughnessTexture" : {
                    "index" : 2
                }
            }
        },
        {
            "doubleSided" : true,
            "name" : "DefaultMaterial",
            "normalTexture" : {
                "index" : 3
            },
            "pbrMetallicRoughness" : {
                "baseColorTexture" : {
                    "index" : 4
                },
                "metallicRoughnessTexture" : {
                    "index" : 5
                }
            }
        },
        {
            "doubleSided" : true,
            "name" : "Material.004",
            "normalTexture" : {
                "index" : 6
            },
            "pbrMetallicRoughness" : {
                "baseColorTexture" : {
                    "index" : 7
                },
                "metallicFactor" : 0,
                "metallicRoughnessTexture" : {
                    "index" : 8
                }
            }
        }
    ],
    "meshes" : [
        {
            "name" : "75767",
            "primitives" : [
                {
                    "attributes" : {
                        "POSITION" : 0,
                        "NORMAL" : 1
                    },
                    "indices" : 2,
                    "material" : 0
                }
            ]
        },
        {
            "name" : "defaultMaterial",
            "primitives" : [
                {
                    "attributes" : {
                        "POSITION" : 3,
                        "NORMAL" : 4,
                        "TEXCOORD_0" : 5
                    },
                    "indices" : 6,
                    "material" : 1
                }
            ]
        },
        {
            "name" : "Cilindro",
            "primitives" : [
                {
                    "attributes" : {
                        "POSITION" : 7,
                        "NORMAL" : 8,
                        "TEXCOORD_0" : 9
                    },
                    "indices" : 10,
                    "material" : 2
                }
            ]
        }
    ],
    "textures" : [
        {
            "sampler" : 0,
            "source" : 0
        },
        {
            "sampler" : 0,
            "source" : 1
        },
        {
            "sampler" : 0,
            "source" : 2
        },
        {
            "sampler" : 0,
            "source" : 3
        },
        {
            "sampler" : 0,
            "source" : 4
        },
        {
            "sampler" : 0,
            "source" : 5
        },
        {
            "sampler" : 0,
            "source" : 6
        },
        {
            "sampler" : 0,
            "source" : 7
        },
        {
            "sampler" : 0,
            "source" : 8
        }
    ],
    "images" : [
        {
            "mimeType" : "image/png",
            "name" : "green_metal_rust_nor_gl_4k",
            "uri" : "Texturas/green_metal_rust_nor_gl_4k.png"
        },
        {
            "mimeType" : "image/jpeg",
            "name" : "green_metal_rust_diff_4k",
            "uri" : "Texturas/green_metal_rust_diff_4k.jpg"
        },
        {
            "mimeType" : "image/png",
            "name" : "green_metal_rust_diff_4k.jpg-green_metal_rust_rough_4k",
            "uri" : "Texturas/green_metal_rust_diff_4k_jpg-green_metal_rust_rough_4k.png"
        },
        {
            "mimeType" : "image/png",
            "name" : "DefaultMaterial_normal",
            "uri" : "Texturas/DefaultMaterial_normal.png"
        },
        {
            "mimeType" : "image/jpeg",
            "name" : "DefaultMaterial_baseColor",
            "uri" : "Texturas/DefaultMaterial_baseColor.jpg"
        },
        {
            "mimeType" : "image/png",
            "name" : "DefaultMaterial_metallicRoughness",
            "uri" : "Texturas/DefaultMaterial_metallicRoughness.png"
        },
        {
            "mimeType" : "image/png",
            "name" : "rust_coarse_01_nor_gl_4k",
            "uri" : "Texturas/rust_coarse_01_nor_gl_4k.png"
        },
        {
            "mimeType" : "image/jpeg",
            "name" : "rust_coarse_01_diff_4k",
            "uri" : "Texturas/rust_coarse_01_diff_4k.jpg"
        },
        {
            "mimeType" : "image/png",
            "name" : "rust_coarse_01_rough_4k",
            "uri" : "Texturas/rust_coarse_01_rough_4k.png"
        }
    ],
    "accessors" : [
        {
            "bufferView" : 0,
            "componentType" : 5126,
            "count" : 106317,
            "max" : [
                381,
                460,
                855
            ],
            "min" : [
                -360,
                -460,
                -1784
            ],
            "type" : "VEC3"
        },
        {
            "bufferView" : 1,
            "componentType" : 5126,
            "count" : 106317,
            "type" : "VEC3"
        },
        {
            "bufferView" : 2,
            "componentType" : 5125,
            "count" : 106317,
            "type" : "SCALAR"
        },
        {
            "bufferView" : 3,
            "componentType" : 5126,
            "count" : 418,
            "max" : [
                0.6848480105400085,
                0.5696970224380493,
                1
            ],
            "min" : [
                -0.6848480105400085,
                -0.5696970224380493,
                -1
            ],
            "type" : "VEC3"
        },
        {
            "bufferView" : 4,
            "componentType" : 5126,
            "count" : 418,
            "type" : "VEC3"
        },
        {
            "bufferView" : 5,
            "componentType" : 5126,
            "count" : 418,
            "type" : "VEC2"
        },
        {
            "bufferView" : 6,
            "componentType" : 5123,
            "count" : 876,
            "type" : "SCALAR"
        },
        {
            "bufferView" : 7,
            "componentType" : 5126,
            "count" : 414,
            "max" : [
                1,
                1,
                1.0000019073486328
            ],
            "min" : [
                -1,
                -1,
                -0.9999980926513672
            ],
            "type" : "VEC3"
        },
        {
            "bufferView" : 8,
            "componentType" : 5126,
            "count" : 414,
            "type" : "VEC3"
        },
        {
            "bufferView" : 9,
            "componentType" : 5126,
            "count" : 414,
            "type" : "VEC2"
        },
        {
            "bufferView" : 10,
            "componentType" : 5123,
            "count" : 816,
            "type" : "SCALAR"
        }
    ],
    "bufferViews" : [
        {
            "buffer" : 0,
            "byteLength" : 1275804,
            "byteOffset" : 0
        },
        {
            "buffer" : 0,
            "byteLength" : 1275804,
            "byteOffset" : 1275804
        },
        {
            "buffer" : 0,
            "byteLength" : 425268,
            "byteOffset" : 2551608
        },
        {
            "buffer" : 0,
            "byteLength" : 5016,
            "byteOffset" : 2976876
        },
        {
            "buffer" : 0,
            "byteLength" : 5016,
            "byteOffset" : 2981892
        },
        {
            "buffer" : 0,
            "byteLength" : 3344,
            "byteOffset" : 2986908
        },
        {
            "buffer" : 0,
            "byteLength" : 1752,
            "byteOffset" : 2990252
        },
        {
            "buffer" : 0,
            "byteLength" : 4968,
            "byteOffset" : 2992004
        },
        {
            "buffer" : 0,
            "byteLength" : 4968,
            "byteOffset" : 2996972
        },
        {
            "buffer" : 0,
            "byteLength" : 3312,
            "byteOffset" : 3001940
        },
        {
            "buffer" : 0,
            "byteLength" : 1632,
            "byteOffset" : 3005252
        }
    ],
    "samplers" : [
        {
            "magFilter" : 9729,
            "minFilter" : 9987
        }
    ],
    "buffers" : [
        {
            "byteLength" : 3006884,
            "uri" : "maquinaCompletaConmesa.bin"
        }
    ]
}
