{
    "asset" : {
        "generator" : "Khronos glTF Blender I/O v1.7.33",
        "version" : "2.0"
    },
    "scene" : 0,
    "scenes" : [
        {
            "name" : "Scene",
            "nodes" : [
                0,
                1,
                2,
                4
            ]
        }
    ],
    "nodes" : [
        {
            "mesh" : 0,
            "name" : "Base",
            "scale" : [
                6.168816566467285,
                6.168816566467285,
                6.168816566467285
            ]
        },
        {
            "name" : "C\u00edrculo",
            "rotation" : [
                0.5,
                0.5,
                -0.5,
                0.5000000596046448
            ],
            "scale" : [
                0.2865672707557678,
                0.2865672707557678,
                0.2865672707557678
            ],
            "translation" : [
                -1.5750105381011963,
                6.38124418258667,
                5.3441362380981445
            ]
        },
        {
            "mesh" : 1,
            "name" : "Plano",
            "scale" : [
                16.4499454498291,
                16.4499454498291,
                16.4499454498291
            ],
            "translation" : [
                0.7815337181091309,
                -0.6608307957649231,
                -0.12555012106895447
            ]
        },
        {
            "mesh" : 2,
            "name" : "Cilindro.001",
            "rotation" : [
                -0.7071068286895752,
                0,
                0,
                0.7071067094802856
            ],
            "scale" : [
                0.5495269298553467,
                1.4102565050125122,
                0.46593597531318665
            ],
            "translation" : [
                0.7170634865760803,
                -3.981994390487671,
                3.222874879837036
            ]
        },
        {
            "children" : [
                3
            ],
            "name" : "CUBO",
            "scale" : [
                2.3100550174713135,
                2.3100550174713135,
                2.3100550174713135
            ],
            "translation" : [
                0,
                12.42559814453125,
                -0.03858879208564758
            ]
        }
    ],
    "animations" : [
        {
            "channels" : [
                {
                    "sampler" : 0,
                    "target" : {
                        "node" : 1,
                        "path" : "translation"
                    }
                },
                {
                    "sampler" : 1,
                    "target" : {
                        "node" : 1,
                        "path" : "rotation"
                    }
                },
                {
                    "sampler" : 2,
                    "target" : {
                        "node" : 1,
                        "path" : "scale"
                    }
                }
            ],
            "name" : "C\u00edrculoAction.004",
            "samplers" : [
                {
                    "input" : 24,
                    "interpolation" : "STEP",
                    "output" : 25
                },
                {
                    "input" : 24,
                    "interpolation" : "STEP",
                    "output" : 26
                },
                {
                    "input" : 24,
                    "interpolation" : "STEP",
                    "output" : 27
                }
            ]
        },
        {
            "channels" : [
                {
                    "sampler" : 0,
                    "target" : {
                        "node" : 3,
                        "path" : "translation"
                    }
                },
                {
                    "sampler" : 1,
                    "target" : {
                        "node" : 3,
                        "path" : "rotation"
                    }
                },
                {
                    "sampler" : 2,
                    "target" : {
                        "node" : 3,
                        "path" : "scale"
                    }
                }
            ],
            "name" : "Cilindro.001Action",
            "samplers" : [
                {
                    "input" : 28,
                    "interpolation" : "LINEAR",
                    "output" : 29
                },
                {
                    "input" : 30,
                    "interpolation" : "LINEAR",
                    "output" : 31
                },
                {
                    "input" : 30,
                    "interpolation" : "LINEAR",
                    "output" : 32
                }
            ]
        }
    ],
    "materials" : [
        {
            "doubleSided" : true,
            "name" : "Amortiguador",
            "pbrMetallicRoughness" : {
                "baseColorFactor" : [
                    0.6571277379989624,
                    0.3821536898612976,
                    0.03719785064458847,
                    1
                ],
                "metallicFactor" : 0.4909090995788574,
                "roughnessFactor" : 0.5
            }
        },
        {
            "doubleSided" : true,
            "name" : "masa.001",
            "pbrMetallicRoughness" : {
                "baseColorFactor" : [
                    0.800000011920929,
                    0.800000011920929,
                    0.800000011920929,
                    1
                ],
                "metallicFactor" : 0
            }
        },
        {
            "doubleSided" : true,
            "name" : "Llanta",
            "pbrMetallicRoughness" : {
                "metallicFactor" : 0
            }
        }
    ],
    "meshes" : [
        {
            "name" : "Cubo",
            "primitives" : [
                {
                    "attributes" : {
                        "POSITION" : 0,
                        "NORMAL" : 1,
                        "TEXCOORD_0" : 2
                    },
                    "indices" : 3
                },
                {
                    "attributes" : {
                        "POSITION" : 4,
                        "NORMAL" : 5,
                        "TEXCOORD_0" : 6
                    },
                    "indices" : 7,
                    "material" : 0
                }
            ]
        },
        {
            "name" : "Plano",
            "primitives" : [
                {
                    "attributes" : {
                        "POSITION" : 8,
                        "NORMAL" : 9,
                        "TEXCOORD_0" : 10
                    },
                    "indices" : 11
                }
            ]
        },
        {
            "name" : "Cilindro.003",
            "primitives" : [
                {
                    "attributes" : {
                        "POSITION" : 12,
                        "NORMAL" : 13,
                        "TEXCOORD_0" : 14
                    },
                    "indices" : 15
                },
                {
                    "attributes" : {
                        "POSITION" : 16,
                        "NORMAL" : 17,
                        "TEXCOORD_0" : 18
                    },
                    "indices" : 19,
                    "material" : 1
                },
                {
                    "attributes" : {
                        "POSITION" : 20,
                        "NORMAL" : 21,
                        "TEXCOORD_0" : 22
                    },
                    "indices" : 23,
                    "material" : 2
                }
            ]
        }
    ],
    "accessors" : [
        {
            "bufferView" : 0,
            "componentType" : 5126,
            "count" : 56,
            "max" : [
                1.031129002571106,
                2.0490334033966064,
                2.431302785873413
            ],
            "min" : [
                -1,
                -0.07926338911056519,
                -4.551435470581055
            ],
            "type" : "VEC3"
        },
        {
            "bufferView" : 1,
            "componentType" : 5126,
            "count" : 56,
            "type" : "VEC3"
        },
        {
            "bufferView" : 2,
            "componentType" : 5126,
            "count" : 56,
            "type" : "VEC2"
        },
        {
            "bufferView" : 3,
            "componentType" : 5123,
            "count" : 96,
            "type" : "SCALAR"
        },
        {
            "bufferView" : 4,
            "componentType" : 5126,
            "count" : 384,
            "max" : [
                0.45802074670791626,
                0.7175033688545227,
                2.334737777709961
            ],
            "min" : [
                0.046454742550849915,
                0.30593734979629517,
                1.3850992918014526
            ],
            "type" : "VEC3"
        },
        {
            "bufferView" : 5,
            "componentType" : 5126,
            "count" : 384,
            "type" : "VEC3"
        },
        {
            "bufferView" : 6,
            "componentType" : 5126,
            "count" : 384,
            "type" : "VEC2"
        },
        {
            "bufferView" : 7,
            "componentType" : 5123,
            "count" : 744,
            "type" : "SCALAR"
        },
        {
            "bufferView" : 8,
            "componentType" : 5126,
            "count" : 16,
            "max" : [
                1.000000238418579,
                0,
                1
            ],
            "min" : [
                -1.000000238418579,
                0,
                -2.061842679977417
            ],
            "type" : "VEC3"
        },
        {
            "bufferView" : 9,
            "componentType" : 5126,
            "count" : 16,
            "type" : "VEC3"
        },
        {
            "bufferView" : 10,
            "componentType" : 5126,
            "count" : 16,
            "type" : "VEC2"
        },
        {
            "bufferView" : 11,
            "componentType" : 5123,
            "count" : 36,
            "type" : "SCALAR"
        },
        {
            "bufferView" : 12,
            "componentType" : 5126,
            "count" : 886,
            "max" : [
                1.000000238418579,
                2.1228480339050293,
                1.375973105430603
            ],
            "min" : [
                -1.000000238418579,
                -0.671678900718689,
                -1.3759742975234985
            ],
            "type" : "VEC3"
        },
        {
            "bufferView" : 13,
            "componentType" : 5126,
            "count" : 886,
            "type" : "VEC3"
        },
        {
            "bufferView" : 14,
            "componentType" : 5126,
            "count" : 886,
            "type" : "VEC2"
        },
        {
            "bufferView" : 15,
            "componentType" : 5123,
            "count" : 1596,
            "type" : "SCALAR"
        },
        {
            "bufferView" : 16,
            "componentType" : 5126,
            "count" : 24,
            "max" : [
                1.4891301393508911,
                3.92848539352417,
                4.8226318359375
            ],
            "min" : [
                -4.00955867767334,
                1.7858413457870483,
                -1.662545919418335
            ],
            "type" : "VEC3"
        },
        {
            "bufferView" : 17,
            "componentType" : 5126,
            "count" : 24,
            "type" : "VEC3"
        },
        {
            "bufferView" : 18,
            "componentType" : 5126,
            "count" : 24,
            "type" : "VEC2"
        },
        {
            "bufferView" : 19,
            "componentType" : 5123,
            "count" : 36,
            "type" : "SCALAR"
        },
        {
            "bufferView" : 20,
            "componentType" : 5126,
            "count" : 384,
            "max" : [
                1.099177598953247,
                3.642042875289917,
                -1.2033696174621582
            ],
            "min" : [
                -3.5275228023529053,
                2.164994239807129,
                -2.499587297439575
            ],
            "type" : "VEC3"
        },
        {
            "bufferView" : 21,
            "componentType" : 5126,
            "count" : 384,
            "type" : "VEC3"
        },
        {
            "bufferView" : 22,
            "componentType" : 5126,
            "count" : 384,
            "type" : "VEC2"
        },
        {
            "bufferView" : 23,
            "componentType" : 5123,
            "count" : 744,
            "type" : "SCALAR"
        },
        {
            "bufferView" : 24,
            "componentType" : 5126,
            "count" : 1,
            "max" : [
                1.25
            ],
            "min" : [
                1.25
            ],
            "type" : "SCALAR"
        },
        {
            "bufferView" : 25,
            "componentType" : 5126,
            "count" : 1,
            "type" : "VEC3"
        },
        {
            "bufferView" : 26,
            "componentType" : 5126,
            "count" : 1,
            "type" : "VEC4"
        },
        {
            "bufferView" : 27,
            "componentType" : 5126,
            "count" : 1,
            "type" : "VEC3"
        },
        {
            "bufferView" : 28,
            "componentType" : 5126,
            "count" : 160,
            "max" : [
                6.625
            ],
            "min" : [
                0
            ],
            "type" : "SCALAR"
        },
        {
            "bufferView" : 29,
            "componentType" : 5126,
            "count" : 160,
            "type" : "VEC3"
        },
        {
            "bufferView" : 30,
            "componentType" : 5126,
            "count" : 2,
            "max" : [
                6.625
            ],
            "min" : [
                0
            ],
            "type" : "SCALAR"
        },
        {
            "bufferView" : 31,
            "componentType" : 5126,
            "count" : 2,
            "type" : "VEC4"
        },
        {
            "bufferView" : 32,
            "componentType" : 5126,
            "count" : 2,
            "type" : "VEC3"
        }
    ],
    "bufferViews" : [
        {
            "buffer" : 0,
            "byteLength" : 672,
            "byteOffset" : 0
        },
        {
            "buffer" : 0,
            "byteLength" : 672,
            "byteOffset" : 672
        },
        {
            "buffer" : 0,
            "byteLength" : 448,
            "byteOffset" : 1344
        },
        {
            "buffer" : 0,
            "byteLength" : 192,
            "byteOffset" : 1792
        },
        {
            "buffer" : 0,
            "byteLength" : 4608,
            "byteOffset" : 1984
        },
        {
            "buffer" : 0,
            "byteLength" : 4608,
            "byteOffset" : 6592
        },
        {
            "buffer" : 0,
            "byteLength" : 3072,
            "byteOffset" : 11200
        },
        {
            "buffer" : 0,
            "byteLength" : 1488,
            "byteOffset" : 14272
        },
        {
            "buffer" : 0,
            "byteLength" : 192,
            "byteOffset" : 15760
        },
        {
            "buffer" : 0,
            "byteLength" : 192,
            "byteOffset" : 15952
        },
        {
            "buffer" : 0,
            "byteLength" : 128,
            "byteOffset" : 16144
        },
        {
            "buffer" : 0,
            "byteLength" : 72,
            "byteOffset" : 16272
        },
        {
            "buffer" : 0,
            "byteLength" : 10632,
            "byteOffset" : 16344
        },
        {
            "buffer" : 0,
            "byteLength" : 10632,
            "byteOffset" : 26976
        },
        {
            "buffer" : 0,
            "byteLength" : 7088,
            "byteOffset" : 37608
        },
        {
            "buffer" : 0,
            "byteLength" : 3192,
            "byteOffset" : 44696
        },
        {
            "buffer" : 0,
            "byteLength" : 288,
            "byteOffset" : 47888
        },
        {
            "buffer" : 0,
            "byteLength" : 288,
            "byteOffset" : 48176
        },
        {
            "buffer" : 0,
            "byteLength" : 192,
            "byteOffset" : 48464
        },
        {
            "buffer" : 0,
            "byteLength" : 72,
            "byteOffset" : 48656
        },
        {
            "buffer" : 0,
            "byteLength" : 4608,
            "byteOffset" : 48728
        },
        {
            "buffer" : 0,
            "byteLength" : 4608,
            "byteOffset" : 53336
        },
        {
            "buffer" : 0,
            "byteLength" : 3072,
            "byteOffset" : 57944
        },
        {
            "buffer" : 0,
            "byteLength" : 1488,
            "byteOffset" : 61016
        },
        {
            "buffer" : 0,
            "byteLength" : 4,
            "byteOffset" : 62504
        },
        {
            "buffer" : 0,
            "byteLength" : 12,
            "byteOffset" : 62508
        },
        {
            "buffer" : 0,
            "byteLength" : 16,
            "byteOffset" : 62520
        },
        {
            "buffer" : 0,
            "byteLength" : 12,
            "byteOffset" : 62536
        },
        {
            "buffer" : 0,
            "byteLength" : 640,
            "byteOffset" : 62548
        },
        {
            "buffer" : 0,
            "byteLength" : 1920,
            "byteOffset" : 63188
        },
        {
            "buffer" : 0,
            "byteLength" : 8,
            "byteOffset" : 65108
        },
        {
            "buffer" : 0,
            "byteLength" : 32,
            "byteOffset" : 65116
        },
        {
            "buffer" : 0,
            "byteLength" : 24,
            "byteOffset" : 65148
        }
    ],
    "buffers" : [
        {
            "byteLength" : 65172,
            "uri" : "VibracionLibre.bin"
        }
    ]
}
